<?xml version="1.0" encoding="UTF-8" standalone="no"?><!--Created with Inkscape (http://www.inkscape.org/)--><svg version="1.1" id="svg1" xmlns="http://www.w3.org/2000/svg" xmlns:svg="http://www.w3.org/2000/svg" viewBox="0 0 793.70667 1122.52"><defs id="defs1"/><g id="g1"><path id="path1" d="m 1211,5777.33 h 2 l 4,-2 2,-2 2,-4 v -8 l -2,-4 -2,-2 -4,-2 h -4 l -4,2 -6,4 -20,20 v -28" style="fill:none;stroke:#000000;stroke-width:6;stroke-linecap:round;stroke-linejoin:round;stroke-miterlimit:10;stroke-dasharray:none;stroke-opacity:1" transform="matrix(0.16,0,0,-0.16,0,1122.52)"/><path id="path2" d="M 3162,3853.33 H 2285" style="fill:none;stroke:#000000;stroke-width:6;stroke-linecap:round;stroke-linejoin:round;stroke-miterlimit:10;stroke-dasharray:none;stroke-opacity:1" transform="matrix(0.16,0,0,-0.16,0,1122.52)"/><path id="path3" d="M 3157,3496.33 H 2285" style="fill:none;stroke:#000000;stroke-width:6;stroke-linecap:round;stroke-linejoin:round;stroke-miterlimit:10;stroke-dasharray:none;stroke-opacity:1" transform="matrix(0.16,0,0,-0.16,0,1122.52)"/><path id="path4" d="m 2311,3797.33 v -245" style="fill:none;stroke:#000000;stroke-width:6;stroke-linecap:round;stroke-linejoin:round;stroke-miterlimit:10;stroke-dasharray:none;stroke-opacity:1" transform="matrix(0.16,0,0,-0.16,0,1122.52)"/><path id="path5" d="m 2320,3797.33 h -19 l 10,56" style="fill:#000000;fill-opacity:1;fill-rule:evenodd;stroke:none" transform="matrix(0.16,0,0,-0.16,0,1122.52)"/><path id="path6" d="m 2301,3552.33 h 19 l -9,-56" style="fill:#000000;fill-opacity:1;fill-rule:evenodd;stroke:none" transform="matrix(0.16,0,0,-0.16,0,1122.52)"/><path id="path7" d="m 2371,3729.33 2,-4 7,-7 h -46" style="fill:none;stroke:#000000;stroke-width:6;stroke-linecap:round;stroke-linejoin:round;stroke-miterlimit:10;stroke-dasharray:none;stroke-opacity:1" transform="matrix(0.16,0,0,-0.16,0,1122.52)"/><path id="path8" d="m 2380,3673.33 -31,21 v -32" style="fill:none;stroke:#000000;stroke-width:6;stroke-linecap:round;stroke-linejoin:round;stroke-miterlimit:10;stroke-dasharray:none;stroke-opacity:1" transform="matrix(0.16,0,0,-0.16,0,1122.52)"/><path id="path9" d="m 2380,3673.33 h -46" style="fill:none;stroke:#000000;stroke-width:6;stroke-linecap:round;stroke-linejoin:round;stroke-miterlimit:10;stroke-dasharray:none;stroke-opacity:1" transform="matrix(0.16,0,0,-0.16,0,1122.52)"/><path id="path10" d="m 2380,3638.33 -3,6 -6,5 -11,2 h -7 l -11,-2 -6,-5 -2,-6 v -5 l 2,-6 6,-5 11,-2 h 7 l 11,2 6,5 3,6 v 5" style="fill:none;stroke:#000000;stroke-width:6;stroke-linecap:round;stroke-linejoin:round;stroke-miterlimit:10;stroke-dasharray:none;stroke-opacity:1" transform="matrix(0.16,0,0,-0.16,0,1122.52)"/><path id="path11" d="M 3162,3853.33 H 2803" style="fill:none;stroke:#000000;stroke-width:6;stroke-linecap:round;stroke-linejoin:round;stroke-miterlimit:10;stroke-dasharray:none;stroke-opacity:1" transform="matrix(0.16,0,0,-0.16,0,1122.52)"/><path id="path12" d="M 3245,3547.33 H 2803" style="fill:none;stroke:#000000;stroke-width:6;stroke-linecap:round;stroke-linejoin:round;stroke-miterlimit:10;stroke-dasharray:none;stroke-opacity:1" transform="matrix(0.16,0,0,-0.16,0,1122.52)"/><path id="path13" d="m 2828,3797.33 v -194" style="fill:none;stroke:#000000;stroke-width:6;stroke-linecap:round;stroke-linejoin:round;stroke-miterlimit:10;stroke-dasharray:none;stroke-opacity:1" transform="matrix(0.16,0,0,-0.16,0,1122.52)"/><path id="path14" d="m 2837,3797.33 h -18 l 9,56" style="fill:#000000;fill-opacity:1;fill-rule:evenodd;stroke:none" transform="matrix(0.16,0,0,-0.16,0,1122.52)"/><path id="path15" d="m 2819,3603.33 h 18 l -9,-56" style="fill:#000000;fill-opacity:1;fill-rule:evenodd;stroke:none" transform="matrix(0.16,0,0,-0.16,0,1122.52)"/><path id="path16" d="m 2888,3755.33 2,-5 7,-6 h -46" style="fill:none;stroke:#000000;stroke-width:6;stroke-linecap:round;stroke-linejoin:round;stroke-miterlimit:10;stroke-dasharray:none;stroke-opacity:1" transform="matrix(0.16,0,0,-0.16,0,1122.52)"/><path id="path17" d="m 2886,3718.33 h 2 l 4,-2 3,-3 2,-4 v -9 l -2,-4 -3,-2 -4,-3 h -4 l -5,3 -6,4 -22,22 v -31" style="fill:none;stroke:#000000;stroke-width:6;stroke-linecap:round;stroke-linejoin:round;stroke-miterlimit:10;stroke-dasharray:none;stroke-opacity:1" transform="matrix(0.16,0,0,-0.16,0,1122.52)"/><path id="path18" d="m 2897,3663.33 -2,7 -7,4 -11,2 h -6 l -11,-2 -7,-4 -2,-7 v -4 l 2,-7 7,-4 11,-2 h 6 l 11,2 7,4 2,7 v 4" style="fill:none;stroke:#000000;stroke-width:6;stroke-linecap:round;stroke-linejoin:round;stroke-miterlimit:10;stroke-dasharray:none;stroke-opacity:1" transform="matrix(0.16,0,0,-0.16,0,1122.52)"/><path id="path19" d="M 3343,3853.33 H 3177" style="fill:none;stroke:#000000;stroke-width:6;stroke-linecap:round;stroke-linejoin:round;stroke-miterlimit:10;stroke-dasharray:none;stroke-opacity:1" transform="matrix(0.16,0,0,-0.16,0,1122.52)"/><path id="path20" d="m 3343,3853.33 v -357" style="fill:none;stroke:#000000;stroke-width:6;stroke-linecap:round;stroke-linejoin:round;stroke-miterlimit:10;stroke-dasharray:none;stroke-opacity:1" transform="matrix(0.16,0,0,-0.16,0,1122.52)"/><path id="path21" d="m 3177,3853.33 v -357" style="fill:none;stroke:#000000;stroke-width:6;stroke-linecap:round;stroke-linejoin:round;stroke-miterlimit:10;stroke-dasharray:none;stroke-opacity:1" transform="matrix(0.16,0,0,-0.16,0,1122.52)"/><path id="path22" d="m 3283,3853.33 v -283" style="fill:none;stroke:#000000;stroke-width:6;stroke-linecap:round;stroke-linejoin:round;stroke-miterlimit:10;stroke-dasharray:none;stroke-opacity:1" transform="matrix(0.16,0,0,-0.16,0,1122.52)"/><path id="path23" d="m 3237,3853.33 v -283" style="fill:none;stroke:#000000;stroke-width:6;stroke-linecap:round;stroke-linejoin:round;stroke-miterlimit:10;stroke-dasharray:none;stroke-opacity:1" transform="matrix(0.16,0,0,-0.16,0,1122.52)"/><path id="path24" d="m 3237,3570.33 v -3 l 1,-3 1,-2 1,-3 2,-3 2,-2 2,-2 2,-2 3,-1 3,-1 h 3 l 3,-1 3,1 h 3 l 3,1 2,1 3,2 2,2 2,2 2,3 1,3 1,2 1,3 v 3" style="fill:none;stroke:#000000;stroke-width:6;stroke-linecap:round;stroke-linejoin:round;stroke-miterlimit:10;stroke-dasharray:none;stroke-opacity:1" transform="matrix(0.16,0,0,-0.16,0,1122.52)"/><path id="path25" d="m 3343,3838.33 v -186" style="fill:none;stroke:#000000;stroke-width:6;stroke-linecap:round;stroke-linejoin:round;stroke-miterlimit:10;stroke-dasharray:none;stroke-opacity:1" transform="matrix(0.16,0,0,-0.16,0,1122.52)"/><path id="path26" d="m 3177,3838.33 v -186" style="fill:none;stroke:#000000;stroke-width:6;stroke-linecap:round;stroke-linejoin:round;stroke-miterlimit:10;stroke-dasharray:none;stroke-opacity:1" transform="matrix(0.16,0,0,-0.16,0,1122.52)"/><path id="path27" d="m 3343,3677.33 h 217" style="fill:none;stroke:#000000;stroke-width:6;stroke-linecap:round;stroke-linejoin:round;stroke-miterlimit:10;stroke-dasharray:none;stroke-opacity:1" transform="matrix(0.16,0,0,-0.16,0,1122.52)"/><path id="path28" d="m 3287,3677.33 h -54" style="fill:none;stroke:#000000;stroke-width:6;stroke-linecap:round;stroke-linejoin:round;stroke-miterlimit:10;stroke-dasharray:none;stroke-opacity:1" transform="matrix(0.16,0,0,-0.16,0,1122.52)"/><path id="path29" d="m 3287,3668.33 v 19 l 56,-10" style="fill:#000000;fill-opacity:1;fill-rule:evenodd;stroke:none" transform="matrix(0.16,0,0,-0.16,0,1122.52)"/><path id="path30" d="m 3233,3687.33 v -19 l -56,9" style="fill:#000000;fill-opacity:1;fill-rule:evenodd;stroke:none" transform="matrix(0.16,0,0,-0.16,0,1122.52)"/><path id="path31" d="m 3433,3737.33 -5,-2 -4,-4 -2,-7 v -4 l 2,-7 4,-4 5,-2 h 6 l 4,2 5,4 2,7 v 4 l -2,7 -5,4 -4,2 h -6" style="fill:none;stroke:#000000;stroke-width:6;stroke-linecap:round;stroke-linejoin:round;stroke-miterlimit:10;stroke-dasharray:none;stroke-opacity:1" transform="matrix(0.16,0,0,-0.16,0,1122.52)"/><path id="path32" d="m 3446,3744.33 -20,-44" style="fill:none;stroke:#000000;stroke-width:6;stroke-linecap:round;stroke-linejoin:round;stroke-miterlimit:10;stroke-dasharray:none;stroke-opacity:1" transform="matrix(0.16,0,0,-0.16,0,1122.52)"/><path id="path33" d="m 3489,3740.33 -2,4 -6,2 h -5 l -6,-2 -5,-7 -2,-11 v -10 l 2,-9 5,-5 6,-2 h 2 l 7,2 4,5 3,6 v 3 l -3,6 -4,4 -7,3 h -2 l -6,-3 -5,-4 -2,-6" style="fill:none;stroke:#000000;stroke-width:6;stroke-linecap:round;stroke-linejoin:round;stroke-miterlimit:10;stroke-dasharray:none;stroke-opacity:1" transform="matrix(0.16,0,0,-0.16,0,1122.52)"/><path id="path34" d="m 3520,3746.33 -7,-2 -4,-7 -2,-11 v -6 l 2,-11 4,-7 7,-2 h 4 l 7,2 4,7 2,11 v 6 l -2,11 -4,7 -7,2 h -4" style="fill:none;stroke:#000000;stroke-width:6;stroke-linecap:round;stroke-linejoin:round;stroke-miterlimit:10;stroke-dasharray:none;stroke-opacity:1" transform="matrix(0.16,0,0,-0.16,0,1122.52)"/><path id="path35" d="m 3528,3760.33 v 19" style="fill:none;stroke:#000000;stroke-width:6;stroke-linecap:round;stroke-linejoin:round;stroke-miterlimit:10;stroke-dasharray:none;stroke-opacity:1" transform="matrix(0.16,0,0,-0.16,0,1122.52)"/><path id="path36" d="m 3528,3774.33 4,4 2,1 h 4 l 3,-1 1,-4 v -14" style="fill:none;stroke:#000000;stroke-width:6;stroke-linecap:round;stroke-linejoin:round;stroke-miterlimit:10;stroke-dasharray:none;stroke-opacity:1" transform="matrix(0.16,0,0,-0.16,0,1122.52)"/><path id="path37" d="m 3542,3774.33 4,4 3,1 h 4 l 2,-1 2,-4 v -14" style="fill:none;stroke:#000000;stroke-width:6;stroke-linecap:round;stroke-linejoin:round;stroke-miterlimit:10;stroke-dasharray:none;stroke-opacity:1" transform="matrix(0.16,0,0,-0.16,0,1122.52)"/><path id="path38" d="m 3583,3784.33 -1,3 -4,1 h -3 l -4,-1 -2,-4 -2,-7 v -6 l 2,-6 2,-2 4,-2 h 1 l 4,2 3,2 1,4 v 2 l -1,4 -3,2 -4,2 h -1 l -4,-2 -2,-2 -2,-4" style="fill:none;stroke:#000000;stroke-width:6;stroke-linecap:round;stroke-linejoin:round;stroke-miterlimit:10;stroke-dasharray:none;stroke-opacity:1" transform="matrix(0.16,0,0,-0.16,0,1122.52)"/><path id="path39" d="m 1193,4487.33 v 7 l -1,3 -2,3 -1,2 -2,3 -3,2 -2,2 -3,1 -3,2 h -3 l -3,1 h -6 l -3,-1 -3,-1 -3,-2 -3,-1 -2,-3 -2,-2 -2,-3 -2,-2 -1,-3 v -3 l -1,-4 v -3 l 1,-3 1,-3 1,-3 1,-2 2,-3 3,-2 2,-2 3,-2 3,-1 3,-1 3,-1 h 3" style="fill:none;stroke:#000000;stroke-width:6;stroke-linecap:round;stroke-linejoin:round;stroke-miterlimit:10;stroke-dasharray:none;stroke-opacity:1" transform="matrix(0.16,0,0,-0.16,0,1122.52)"/><path id="path40" d="m 1168,4465.33 h 6 l 3,1 2,2 3,1 2,2 2,2 2,3 1,3 1,3 1,2 v 6 l -1,3 -1,3 -1,3 -2,2 -2,3 -2,2 -3,1 -2,2 -3,1 h -12 l -3,-1 -3,-2 -2,-1 -2,-2 -2,-3 -2,-2 -1,-3 -1,-3 -1,-3 v -6 l 1,-2 1,-3 1,-3 2,-3 2,-2 2,-2 2,-1 3,-2 3,-1 h 6" style="fill:none;stroke:#000000;stroke-width:6;stroke-linecap:round;stroke-linejoin:round;stroke-miterlimit:10;stroke-dasharray:none;stroke-opacity:1" transform="matrix(0.16,0,0,-0.16,0,1122.52)"/><path id="path41" d="m 1145,4422.33 h 46" style="fill:none;stroke:#000000;stroke-width:6;stroke-linecap:round;stroke-linejoin:round;stroke-miterlimit:10;stroke-dasharray:none;stroke-opacity:1" transform="matrix(0.16,0,0,-0.16,0,1122.52)"/><path id="path42" d="m 1145,4394.33 h 46" style="fill:none;stroke:#000000;stroke-width:6;stroke-linecap:round;stroke-linejoin:round;stroke-miterlimit:10;stroke-dasharray:none;stroke-opacity:1" transform="matrix(0.16,0,0,-0.16,0,1122.52)"/><path id="path43" d="m 1145,4422.33 v -28" style="fill:none;stroke:#000000;stroke-width:6;stroke-linecap:round;stroke-linejoin:round;stroke-miterlimit:10;stroke-dasharray:none;stroke-opacity:1" transform="matrix(0.16,0,0,-0.16,0,1122.52)"/><path id="path44" d="m 1191,4422.33 v -28" style="fill:none;stroke:#000000;stroke-width:6;stroke-linecap:round;stroke-linejoin:round;stroke-miterlimit:10;stroke-dasharray:none;stroke-opacity:1" transform="matrix(0.16,0,0,-0.16,0,1122.52)"/><path id="path45" d="m 1191,4408.33 5,2 5,2 5,2 5,3 5,3 4,4 5,3 4,4 3,5 4,4 3,5 3,5 2,5 2,5 2,5 1,6 1,6 v 5 l 1,6 -1,5 v 6 l -1,6 -2,5 -1,5 -2,6 -3,5 -3,5 -3,4 -3,5 -4,4 -4,4 -4,4 -5,3 -4,3 -5,3 -5,2 -6,2 -5,2 -5,2 h -6 l -6,1 h -11 l -5,-1 h -6 l -5,-2 -6,-2 -5,-2 -5,-2 -5,-3 -5,-3 -4,-3 -5,-4 -4,-4 -3,-4 -4,-5 -3,-4 -3,-5 -2,-5 -2,-6 -2,-5 -1,-5 -1,-6 -1,-6 v -11 l 1,-5 1,-6 1,-6 2,-5 2,-5 2,-5 3,-5 3,-5 3,-4 4,-5 4,-4 4,-3 5,-4 4,-3 5,-3 5,-2 6,-2 5,-2" style="fill:none;stroke:#000000;stroke-width:6;stroke-linecap:round;stroke-linejoin:round;stroke-miterlimit:10;stroke-dasharray:none;stroke-opacity:1" transform="matrix(0.16,0,0,-0.16,0,1122.52)"/><path id="path46" d="m 1168,4643.33 v -79" style="fill:none;stroke:#000000;stroke-width:6;stroke-linecap:round;stroke-linejoin:round;stroke-miterlimit:10;stroke-dasharray:none;stroke-opacity:1" transform="matrix(0.16,0,0,-0.16,0,1122.52)"/><path id="path47" d="m 1168,4551.33 v -13" style="fill:none;stroke:#000000;stroke-width:6;stroke-linecap:round;stroke-linejoin:round;stroke-miterlimit:10;stroke-dasharray:none;stroke-opacity:1" transform="matrix(0.16,0,0,-0.16,0,1122.52)"/><path id="path48" d="m 1168,4526.33 v -77" style="fill:none;stroke:#000000;stroke-width:6;stroke-linecap:round;stroke-linejoin:round;stroke-miterlimit:10;stroke-dasharray:none;stroke-opacity:1" transform="matrix(0.16,0,0,-0.16,0,1122.52)"/><path id="path49" d="m 1168,4436.33 v -12" style="fill:none;stroke:#000000;stroke-width:6;stroke-linecap:round;stroke-linejoin:round;stroke-miterlimit:10;stroke-dasharray:none;stroke-opacity:1" transform="matrix(0.16,0,0,-0.16,0,1122.52)"/><path id="path50" d="m 1168,4411.33 v -79" style="fill:none;stroke:#000000;stroke-width:6;stroke-linecap:round;stroke-linejoin:round;stroke-miterlimit:10;stroke-dasharray:none;stroke-opacity:1" transform="matrix(0.16,0,0,-0.16,0,1122.52)"/><path id="path51" d="m 1297,4487.33 h -53" style="fill:none;stroke:#000000;stroke-width:6;stroke-linecap:round;stroke-linejoin:round;stroke-miterlimit:10;stroke-dasharray:none;stroke-opacity:1" transform="matrix(0.16,0,0,-0.16,0,1122.52)"/><path id="path52" d="m 1232,4487.33 h -13" style="fill:none;stroke:#000000;stroke-width:6;stroke-linecap:round;stroke-linejoin:round;stroke-miterlimit:10;stroke-dasharray:none;stroke-opacity:1" transform="matrix(0.16,0,0,-0.16,0,1122.52)"/><path id="path53" d="m 1206,4487.33 h -76" style="fill:none;stroke:#000000;stroke-width:6;stroke-linecap:round;stroke-linejoin:round;stroke-miterlimit:10;stroke-dasharray:none;stroke-opacity:1" transform="matrix(0.16,0,0,-0.16,0,1122.52)"/><path id="path54" d="m 1117,4487.33 h -13" style="fill:none;stroke:#000000;stroke-width:6;stroke-linecap:round;stroke-linejoin:round;stroke-miterlimit:10;stroke-dasharray:none;stroke-opacity:1" transform="matrix(0.16,0,0,-0.16,0,1122.52)"/><path id="path55" d="m 1091,4487.33 h -52" style="fill:none;stroke:#000000;stroke-width:6;stroke-linecap:round;stroke-linejoin:round;stroke-miterlimit:10;stroke-dasharray:none;stroke-opacity:1" transform="matrix(0.16,0,0,-0.16,0,1122.52)"/><path id="path56" d="m 1182,4570.33 h 196" style="fill:none;stroke:#000000;stroke-width:6;stroke-linecap:round;stroke-linejoin:round;stroke-miterlimit:10;stroke-dasharray:none;stroke-opacity:1" transform="matrix(0.16,0,0,-0.16,0,1122.52)"/><path id="path57" d="m 1205,4422.33 h 173" style="fill:none;stroke:#000000;stroke-width:6;stroke-linecap:round;stroke-linejoin:round;stroke-miterlimit:10;stroke-dasharray:none;stroke-opacity:1" transform="matrix(0.16,0,0,-0.16,0,1122.52)"/><path id="path58" d="m 1356,4520.33 v -47" style="fill:none;stroke:#000000;stroke-width:6;stroke-linecap:round;stroke-linejoin:round;stroke-miterlimit:10;stroke-dasharray:none;stroke-opacity:1" transform="matrix(0.16,0,0,-0.16,0,1122.52)"/><path id="path59" d="m 1364,4520.33 h -17 l 9,50" style="fill:#000000;fill-opacity:1;fill-rule:evenodd;stroke:none" transform="matrix(0.16,0,0,-0.16,0,1122.52)"/><path id="path60" d="m 1347,4473.33 h 17 l -8,-51" style="fill:#000000;fill-opacity:1;fill-rule:evenodd;stroke:none" transform="matrix(0.16,0,0,-0.16,0,1122.52)"/><path id="path61" d="m 1417,4508.33 v 19 l -17,2 2,-2 2,-6 v -6 l -2,-5 -4,-4 -6,-2 h -4 l -6,2 -4,4 -2,5 v 6 l 2,6 2,2 4,2" style="fill:none;stroke:#000000;stroke-width:6;stroke-linecap:round;stroke-linejoin:round;stroke-miterlimit:10;stroke-dasharray:none;stroke-opacity:1" transform="matrix(0.16,0,0,-0.16,0,1122.52)"/><path id="path62" d="m 1417,4488.33 v -22 l -15,12 v -6 l -2,-4 -2,-2 -6,-2 h -4 l -6,2 -4,4 -2,6 v 6 l 2,6 2,2 4,2" style="fill:none;stroke:#000000;stroke-width:6;stroke-linecap:round;stroke-linejoin:round;stroke-miterlimit:10;stroke-dasharray:none;stroke-opacity:1" transform="matrix(0.16,0,0,-0.16,0,1122.52)"/><path id="path63" d="m 1178,4570.33 h 319" style="fill:none;stroke:#000000;stroke-width:6;stroke-linecap:round;stroke-linejoin:round;stroke-miterlimit:10;stroke-dasharray:none;stroke-opacity:1" transform="matrix(0.16,0,0,-0.16,0,1122.52)"/><path id="path64" d="m 1205,4394.33 h 292" style="fill:none;stroke:#000000;stroke-width:6;stroke-linecap:round;stroke-linejoin:round;stroke-miterlimit:10;stroke-dasharray:none;stroke-opacity:1" transform="matrix(0.16,0,0,-0.16,0,1122.52)"/><path id="path65" d="m 1474,4520.33 v -75" style="fill:none;stroke:#000000;stroke-width:6;stroke-linecap:round;stroke-linejoin:round;stroke-miterlimit:10;stroke-dasharray:none;stroke-opacity:1" transform="matrix(0.16,0,0,-0.16,0,1122.52)"/><path id="path66" d="m 1482,4520.33 h -16 l 8,50" style="fill:#000000;fill-opacity:1;fill-rule:evenodd;stroke:none" transform="matrix(0.16,0,0,-0.16,0,1122.52)"/><path id="path67" d="m 1466,4445.33 h 16 l -8,-51" style="fill:#000000;fill-opacity:1;fill-rule:evenodd;stroke:none" transform="matrix(0.16,0,0,-0.16,0,1122.52)"/><path id="path68" d="m 1530,4487.33 4,2 2,6 v 4 l -2,6 -6,4 -10,2 h -10 l -7,-2 -4,-4 -2,-6 v -2 l 2,-6 4,-4 5,-2 h 2 l 6,2 4,4 2,6 v 2 l -2,6 -4,4 -6,2" style="fill:none;stroke:#000000;stroke-width:6;stroke-linecap:round;stroke-linejoin:round;stroke-miterlimit:10;stroke-dasharray:none;stroke-opacity:1" transform="matrix(0.16,0,0,-0.16,0,1122.52)"/><path id="path69" d="m 1536,4452.33 -28,20 v -30" style="fill:none;stroke:#000000;stroke-width:6;stroke-linecap:round;stroke-linejoin:round;stroke-miterlimit:10;stroke-dasharray:none;stroke-opacity:1" transform="matrix(0.16,0,0,-0.16,0,1122.52)"/><path id="path70" d="m 1536,4452.33 h -41" style="fill:none;stroke:#000000;stroke-width:6;stroke-linecap:round;stroke-linejoin:round;stroke-miterlimit:10;stroke-dasharray:none;stroke-opacity:1" transform="matrix(0.16,0,0,-0.16,0,1122.52)"/><path id="path71" d="m 1145,4381.33 v -114" style="fill:none;stroke:#000000;stroke-width:6;stroke-linecap:round;stroke-linejoin:round;stroke-miterlimit:10;stroke-dasharray:none;stroke-opacity:1" transform="matrix(0.16,0,0,-0.16,0,1122.52)"/><path id="path72" d="m 1191,4381.33 v -114" style="fill:none;stroke:#000000;stroke-width:6;stroke-linecap:round;stroke-linejoin:round;stroke-miterlimit:10;stroke-dasharray:none;stroke-opacity:1" transform="matrix(0.16,0,0,-0.16,0,1122.52)"/><path id="path73" d="m 1241,4290.33 h 151" style="fill:none;stroke:#000000;stroke-width:6;stroke-linecap:round;stroke-linejoin:round;stroke-miterlimit:10;stroke-dasharray:none;stroke-opacity:1" transform="matrix(0.16,0,0,-0.16,0,1122.52)"/><path id="path74" d="m 1145,4290.33 h 46" style="fill:none;stroke:#000000;stroke-width:6;stroke-linecap:round;stroke-linejoin:round;stroke-miterlimit:10;stroke-dasharray:none;stroke-opacity:1" transform="matrix(0.16,0,0,-0.16,0,1122.52)"/><path id="path75" d="m 1094,4290.33 h -50" style="fill:none;stroke:#000000;stroke-width:6;stroke-linecap:round;stroke-linejoin:round;stroke-miterlimit:10;stroke-dasharray:none;stroke-opacity:1" transform="matrix(0.16,0,0,-0.16,0,1122.52)"/><path id="path76" d="m 1094,4282.33 v 17 l 51,-9" style="fill:#000000;fill-opacity:1;fill-rule:evenodd;stroke:none" transform="matrix(0.16,0,0,-0.16,0,1122.52)"/><path id="path77" d="m 1241,4299.33 v -17 l -50,8" style="fill:#000000;fill-opacity:1;fill-rule:evenodd;stroke:none" transform="matrix(0.16,0,0,-0.16,0,1122.52)"/><path id="path78" d="m 1312,4344.33 4,2 6,6 v -41" style="fill:none;stroke:#000000;stroke-width:6;stroke-linecap:round;stroke-linejoin:round;stroke-miterlimit:10;stroke-dasharray:none;stroke-opacity:1" transform="matrix(0.16,0,0,-0.16,0,1122.52)"/><path id="path79" d="m 1354,4352.33 -6,-2 -2,-4 v -4 l 2,-4 4,-2 7,-2 6,-1 4,-4 2,-4 v -6 l -2,-4 -2,-2 -6,-2 h -7 l -6,2 -2,2 -2,4 v 6 l 2,4 4,4 6,1 7,2 4,2 2,4 v 4 l -2,4 -6,2 h -7" style="fill:none;stroke:#000000;stroke-width:6;stroke-linecap:round;stroke-linejoin:round;stroke-miterlimit:10;stroke-dasharray:none;stroke-opacity:1" transform="matrix(0.16,0,0,-0.16,0,1122.52)"/><path id="path80" d="m 929,4767.33 h 1 4 l 2,2 2,3 v 9 l -1,2 -1,2 -2,1 -1,2 -2,1 h -4 l -1,-1 -1,-2 -1,-2 -4,-14 v -1 l -1,-1 -1,-2 -1,-1 h -1 l -2,-1 h -3 -3 l -2,1 -3,1 -3,3 -2,2 -1,3 -2,4 v 3 l -1,4 1,7 3,5 3,3 6,1 v 0 l 2,-1 h 2 v -5 h -2 -3 l -2,-1 -1,-1 -1,-1 -1,-2 -1,-2 v -9 l 1,-3 1,-1 2,-2 1,-2 2,-1 h 4 l 2,1 1,2 1,3 3,12 2,3 2,2 2,1 3,1 h 3 l 2,-1 3,-2 2,-1 2,-3 2,-2 1,-3 1,-4 v -10 l -3,-4 -3,-3 -5,-1 h -1 -2 v 0" style="fill:#000000;fill-opacity:1;fill-rule:evenodd;stroke:none" transform="matrix(0.16,0,0,-0.16,0,1122.52)"/><path id="path81" d="m 896,4723.33 v 6 l 21,-5 v 24 l -21,4 v 6 l 47,-10 v -6 l -21,5 v -24 l 21,-4 v -6" style="fill:#000000;fill-opacity:1;fill-rule:evenodd;stroke:none" transform="matrix(0.16,0,0,-0.16,0,1122.52)"/><path id="path82" d="m 896,4683.33 14,1 v 18 l -14,8 v 6 l 47,-26 v -8 l -47,-6 z m 39,4 -20,12 v -14" style="fill:#000000;fill-opacity:1;fill-rule:evenodd;stroke:none" transform="matrix(0.16,0,0,-0.16,0,1122.52)"/><path id="path83" d="m 937,4629.33 v 25 l -15,4 v -23 l -5,2 v 22 l -21,4 v 6 l 47,-10 v -31" style="fill:#000000;fill-opacity:1;fill-rule:evenodd;stroke:none" transform="matrix(0.16,0,0,-0.16,0,1122.52)"/><path id="path84" d="m 937,4589.33 v 15 l -41,9 v 6 l 41,-9 v 16 l 6,-1 v -37" style="fill:#000000;fill-opacity:1;fill-rule:evenodd;stroke:none" transform="matrix(0.16,0,0,-0.16,0,1122.52)"/><path id="path85" d="m 937,4532.33 v 27 l -15,3 v -26 l -5,1 v 26 l -16,3 v -27 l -5,1 v 33 l 47,-10 v -32" style="fill:#000000;fill-opacity:1;fill-rule:evenodd;stroke:none" transform="matrix(0.16,0,0,-0.16,0,1122.52)"/><path id="path86" d="m 896,4495.33 v 7 l 37,16 -37,8 v 6 l 47,-10 v -7 l -38,-16 38,-8 v -6" style="fill:#000000;fill-opacity:1;fill-rule:evenodd;stroke:none" transform="matrix(0.16,0,0,-0.16,0,1122.52)"/><path id="path87" d="m 915,4444.33 -5,2 -4,3 -4,3 -3,3 -2,3 -1,3 v 24 l 47,-10 v -19 l -1,-3 v -2 l -2,-2 -1,-3 -3,-2 -2,-1 -4,-1 h -9 l -1,1 v 0 z m 6,4 h 7 l 3,1 h 2 l 1,2 2,1 v 2 l 1,2 v 14 l -36,7 v -13 l 1,-3 1,-2 1,-2 2,-3 3,-1 3,-2 4,-1 4,-1 v 0" style="fill:#000000;fill-opacity:1;fill-rule:evenodd;stroke:none" transform="matrix(0.16,0,0,-0.16,0,1122.52)"/><path id="path88" d="m 915,4380.33 -5,2 -4,3 -4,3 -3,3 -2,3 -1,3 v 24 l 47,-10 v -19 l -1,-3 v -2 l -2,-2 -1,-2 -3,-2 -2,-2 -4,-1 h -9 l -1,1 v 0 z m 6,4 h 7 l 3,1 h 2 l 1,2 2,1 v 2 l 1,2 v 14 l -36,7 v -13 l 1,-3 1,-2 1,-2 2,-3 3,-1 3,-2 4,-1 4,-1 v 0" style="fill:#000000;fill-opacity:1;fill-rule:evenodd;stroke:none" transform="matrix(0.16,0,0,-0.16,0,1122.52)"/><path id="path89" d="m 937,4333.33 v 27 l -15,3 v -26 l -5,2 v 25 l -16,3 v -27 l -5,1 v 33 l 47,-9 v -33" style="fill:#000000;fill-opacity:1;fill-rule:evenodd;stroke:none" transform="matrix(0.16,0,0,-0.16,0,1122.52)"/><path id="path90" d="m 937,4291.33 v 15 l -41,9 v 6 l 41,-9 v 15 l 6,-1 v -36" style="fill:#000000;fill-opacity:1;fill-rule:evenodd;stroke:none" transform="matrix(0.16,0,0,-0.16,0,1122.52)"/><path id="path91" d="m 896,4263.33 14,2 v 18 l -14,8 v 6 l 47,-26 v -8 l -47,-6 z m 39,5 -20,12 v -14" style="fill:#000000;fill-opacity:1;fill-rule:evenodd;stroke:none" transform="matrix(0.16,0,0,-0.16,0,1122.52)"/><path id="path92" d="m 896,4243.33 v 6 l 47,-9 v -6" style="fill:#000000;fill-opacity:1;fill-rule:evenodd;stroke:none" transform="matrix(0.16,0,0,-0.16,0,1122.52)"/><path id="path93" d="m 896,4204.33 v 29 l 47,-10 v -6 l -42,9 v -23" style="fill:#000000;fill-opacity:1;fill-rule:evenodd;stroke:none" transform="matrix(0.16,0,0,-0.16,0,1122.52)"/><path id="path94" d="m 929,4163.33 h 1 4 l 2,2 2,3 v 9 l -1,2 -1,2 -2,2 -1,1 -2,1 h -4 l -1,-1 -1,-2 -1,-2 -4,-14 v -1 l -1,-1 -1,-1 -1,-1 -1,-1 -2,-1 h -3 -3 l -2,1 -3,2 -3,2 -2,2 -1,3 -2,4 v 4 l -1,4 1,6 3,5 3,3 6,1 h 3 l 1,-1 v -5 h -2 -3 l -2,-1 -1,-1 -1,-1 -1,-1 -1,-2 v -10 l 1,-2 1,-2 2,-2 1,-2 h 2 l 3,-1 1,1 2,1 1,1 1,3 3,12 2,3 2,2 2,2 h 3 3 l 2,-1 3,-1 2,-2 2,-3 2,-2 1,-3 1,-3 v -10 l -3,-5 -3,-3 -5,-1 h -1 -2 v 0" style="fill:#000000;fill-opacity:1;fill-rule:evenodd;stroke:none" transform="matrix(0.16,0,0,-0.16,0,1122.52)"/><path id="path95" d="m 882,4806.33 v -646" style="fill:none;stroke:#000000;stroke-width:6;stroke-linecap:round;stroke-linejoin:round;stroke-miterlimit:10;stroke-dasharray:none;stroke-opacity:1" transform="matrix(0.16,0,0,-0.16,0,1122.52)"/><path id="path96" d="m 1054,4770.33 h 49 l -49,-19 49,-18 h -49" style="fill:none;stroke:#000000;stroke-width:6;stroke-linecap:round;stroke-linejoin:round;stroke-miterlimit:10;stroke-dasharray:none;stroke-opacity:1" transform="matrix(0.16,0,0,-0.16,0,1122.52)"/><path id="path97" d="m 1091,4712.33 h 3 l 4,-2 3,-3 2,-4 v -10 l -2,-4 -3,-3 -4,-2 h -5 l -5,2 -7,5 -23,23 v -32" style="fill:none;stroke:#000000;stroke-width:6;stroke-linecap:round;stroke-linejoin:round;stroke-miterlimit:10;stroke-dasharray:none;stroke-opacity:1" transform="matrix(0.16,0,0,-0.16,0,1122.52)"/><path id="path98" d="m 1103,4654.33 -2,7 -7,4 -12,3 h -7 l -12,-3 -7,-4 -2,-7 v -5 l 2,-7 7,-5 12,-2 h 7 l 12,2 7,5 2,7 v 5" style="fill:none;stroke:#000000;stroke-width:6;stroke-linecap:round;stroke-linejoin:round;stroke-miterlimit:10;stroke-dasharray:none;stroke-opacity:1" transform="matrix(0.16,0,0,-0.16,0,1122.52)"/><path id="path99" d="m 1115,4542.33 33,-39 -44,26" style="fill:#000000;fill-opacity:1;fill-rule:evenodd;stroke:none" transform="matrix(0.16,0,0,-0.16,0,1122.52)"/><path id="path100" d="m 1109,4536.33 -76,65" style="fill:none;stroke:#000000;stroke-width:6;stroke-linecap:round;stroke-linejoin:round;stroke-miterlimit:10;stroke-dasharray:none;stroke-opacity:1" transform="matrix(0.16,0,0,-0.16,0,1122.52)"/><path id="path101" d="m 1033,4601.33 v 187" style="fill:none;stroke:#000000;stroke-width:6;stroke-linecap:round;stroke-linejoin:round;stroke-miterlimit:10;stroke-dasharray:none;stroke-opacity:1" transform="matrix(0.16,0,0,-0.16,0,1122.52)"/></g></svg>