<?xml version="1.0" encoding="UTF-8" standalone="no"?><!--Created with Inkscape (http://www.inkscape.org/)--><svg version="1.1" id="svg1" xmlns="http://www.w3.org/2000/svg" xmlns:svg="http://www.w3.org/2000/svg" viewBox="0 0 793.70667 1122.52"><defs id="defs1"/><g id="g1"><path id="path1" d="m 3877,1850.33 h 85" style="fill:none;stroke:#000000;stroke-width:6;stroke-linecap:round;stroke-linejoin:round;stroke-miterlimit:10;stroke-dasharray:none;stroke-opacity:1" transform="matrix(0.16,0,0,-0.16,0,1122.52)"/><path id="path2" d="m 2690,1812.33 h -85" style="fill:none;stroke:#000000;stroke-width:6;stroke-linecap:round;stroke-linejoin:round;stroke-miterlimit:10;stroke-dasharray:none;stroke-opacity:1" transform="matrix(0.16,0,0,-0.16,0,1122.52)"/><path id="path3" d="m 2795,3342.33 h -71" style="fill:none;stroke:#000000;stroke-width:6;stroke-linecap:round;stroke-linejoin:round;stroke-miterlimit:10;stroke-dasharray:none;stroke-opacity:1" transform="matrix(0.16,0,0,-0.16,0,1122.52)"/><path id="path4" d="m 3925,1810.33 -13,40 25,-34" style="fill:#000000;fill-opacity:1;fill-rule:evenodd;stroke:none" transform="matrix(0.16,0,0,-0.16,0,1122.52)"/><path id="path5" d="m 3931,1813.33 125,-245" style="fill:none;stroke:#000000;stroke-width:6;stroke-linecap:round;stroke-linejoin:round;stroke-miterlimit:10;stroke-dasharray:none;stroke-opacity:1" transform="matrix(0.16,0,0,-0.16,0,1122.52)"/><path id="path6" d="m 4056,1568.33 v -387" style="fill:none;stroke:#000000;stroke-width:6;stroke-linecap:round;stroke-linejoin:round;stroke-miterlimit:10;stroke-dasharray:none;stroke-opacity:1" transform="matrix(0.16,0,0,-0.16,0,1122.52)"/><path id="path7" d="m 4100,1543.33 3,2 4,3 2,4 v 7 l -2,3 -4,4 -3,2 -5,1 h -9 l -5,-1 -4,-2 -3,-4 -2,-3 v -7 l 2,-4 3,-3 4,-2 h 5 v 9" style="fill:none;stroke:#000000;stroke-width:6;stroke-linecap:round;stroke-linejoin:round;stroke-miterlimit:10;stroke-dasharray:none;stroke-opacity:1" transform="matrix(0.16,0,0,-0.16,0,1122.52)"/><path id="path8" d="m 4072,1533.33 h 37 v -16 l -2,-5 -2,-2 -3,-2 h -4 l -3,2 -2,2 -2,5 v 16" style="fill:none;stroke:#000000;stroke-width:6;stroke-linecap:round;stroke-linejoin:round;stroke-miterlimit:10;stroke-dasharray:none;stroke-opacity:1" transform="matrix(0.16,0,0,-0.16,0,1122.52)"/><path id="path9" d="m 4091,1520.33 -19,-12" style="fill:none;stroke:#000000;stroke-width:6;stroke-linecap:round;stroke-linejoin:round;stroke-miterlimit:10;stroke-dasharray:none;stroke-opacity:1" transform="matrix(0.16,0,0,-0.16,0,1122.52)"/><path id="path10" d="m 4072,1496.33 h 37 v -23" style="fill:none;stroke:#000000;stroke-width:6;stroke-linecap:round;stroke-linejoin:round;stroke-miterlimit:10;stroke-dasharray:none;stroke-opacity:1" transform="matrix(0.16,0,0,-0.16,0,1122.52)"/><path id="path11" d="m 4091,1496.33 v -14" style="fill:none;stroke:#000000;stroke-width:6;stroke-linecap:round;stroke-linejoin:round;stroke-miterlimit:10;stroke-dasharray:none;stroke-opacity:1" transform="matrix(0.16,0,0,-0.16,0,1122.52)"/><path id="path12" d="m 4072,1496.33 v -23" style="fill:none;stroke:#000000;stroke-width:6;stroke-linecap:round;stroke-linejoin:round;stroke-miterlimit:10;stroke-dasharray:none;stroke-opacity:1" transform="matrix(0.16,0,0,-0.16,0,1122.52)"/><path id="path13" d="m 4072,1463.33 37,-14 -37,-14" style="fill:none;stroke:#000000;stroke-width:6;stroke-linecap:round;stroke-linejoin:round;stroke-miterlimit:10;stroke-dasharray:none;stroke-opacity:1" transform="matrix(0.16,0,0,-0.16,0,1122.52)"/><path id="path14" d="m 4084,1458.33 v -18" style="fill:none;stroke:#000000;stroke-width:6;stroke-linecap:round;stroke-linejoin:round;stroke-miterlimit:10;stroke-dasharray:none;stroke-opacity:1" transform="matrix(0.16,0,0,-0.16,0,1122.52)"/><path id="path15" d="m 4103,1400.33 4,3 2,6 v 7 l -2,5 -4,3 h -3 l -4,-1 -1,-2 -2,-4 -4,-10 -1,-4 -2,-1 -4,-2 h -5 l -3,3 -2,6 v 7 l 2,5 3,3" style="fill:none;stroke:#000000;stroke-width:6;stroke-linecap:round;stroke-linejoin:round;stroke-miterlimit:10;stroke-dasharray:none;stroke-opacity:1" transform="matrix(0.16,0,0,-0.16,0,1122.52)"/><path id="path16" d="m 4072,1389.33 h 37 v -22" style="fill:none;stroke:#000000;stroke-width:6;stroke-linecap:round;stroke-linejoin:round;stroke-miterlimit:10;stroke-dasharray:none;stroke-opacity:1" transform="matrix(0.16,0,0,-0.16,0,1122.52)"/><path id="path17" d="m 4091,1389.33 v -14" style="fill:none;stroke:#000000;stroke-width:6;stroke-linecap:round;stroke-linejoin:round;stroke-miterlimit:10;stroke-dasharray:none;stroke-opacity:1" transform="matrix(0.16,0,0,-0.16,0,1122.52)"/><path id="path18" d="m 4072,1389.33 v -22" style="fill:none;stroke:#000000;stroke-width:6;stroke-linecap:round;stroke-linejoin:round;stroke-miterlimit:10;stroke-dasharray:none;stroke-opacity:1" transform="matrix(0.16,0,0,-0.16,0,1122.52)"/><path id="path19" d="m 4072,1323.33 h 37" style="fill:none;stroke:#000000;stroke-width:6;stroke-linecap:round;stroke-linejoin:round;stroke-miterlimit:10;stroke-dasharray:none;stroke-opacity:1" transform="matrix(0.16,0,0,-0.16,0,1122.52)"/><path id="path20" d="m 4072,1309.33 h 37 l -37,-24 h 37" style="fill:none;stroke:#000000;stroke-width:6;stroke-linecap:round;stroke-linejoin:round;stroke-miterlimit:10;stroke-dasharray:none;stroke-opacity:1" transform="matrix(0.16,0,0,-0.16,0,1122.52)"/><path id="path21" d="m 4109,1271.33 h -37 v -21" style="fill:none;stroke:#000000;stroke-width:6;stroke-linecap:round;stroke-linejoin:round;stroke-miterlimit:10;stroke-dasharray:none;stroke-opacity:1" transform="matrix(0.16,0,0,-0.16,0,1122.52)"/><path id="path22" d="m 4072,1241.33 h 37 v -23" style="fill:none;stroke:#000000;stroke-width:6;stroke-linecap:round;stroke-linejoin:round;stroke-miterlimit:10;stroke-dasharray:none;stroke-opacity:1" transform="matrix(0.16,0,0,-0.16,0,1122.52)"/><path id="path23" d="m 4091,1241.33 v -14" style="fill:none;stroke:#000000;stroke-width:6;stroke-linecap:round;stroke-linejoin:round;stroke-miterlimit:10;stroke-dasharray:none;stroke-opacity:1" transform="matrix(0.16,0,0,-0.16,0,1122.52)"/><path id="path24" d="m 4072,1241.33 v -23" style="fill:none;stroke:#000000;stroke-width:6;stroke-linecap:round;stroke-linejoin:round;stroke-miterlimit:10;stroke-dasharray:none;stroke-opacity:1" transform="matrix(0.16,0,0,-0.16,0,1122.52)"/><path id="path25" d="m 4109,1196.33 h -37" style="fill:none;stroke:#000000;stroke-width:6;stroke-linecap:round;stroke-linejoin:round;stroke-miterlimit:10;stroke-dasharray:none;stroke-opacity:1" transform="matrix(0.16,0,0,-0.16,0,1122.52)"/><path id="path26" d="m 4109,1208.33 v -25" style="fill:none;stroke:#000000;stroke-width:6;stroke-linecap:round;stroke-linejoin:round;stroke-miterlimit:10;stroke-dasharray:none;stroke-opacity:1" transform="matrix(0.16,0,0,-0.16,0,1122.52)"/><path id="path27" d="m 2690,1812.33 h -85" style="fill:none;stroke:#000000;stroke-width:6;stroke-linecap:round;stroke-linejoin:round;stroke-miterlimit:10;stroke-dasharray:none;stroke-opacity:1" transform="matrix(0.16,0,0,-0.16,0,1122.52)"/><path id="path28" d="m 2641,3703.33 3,2 4,3 2,4 v 7 l -2,3 -4,4 -3,1 -5,2 h -9 l -5,-2 -4,-1 -3,-4 -2,-3 v -7 l 2,-4 3,-3 4,-2 h 5 v 9" style="fill:none;stroke:#000000;stroke-width:6;stroke-linecap:round;stroke-linejoin:round;stroke-miterlimit:10;stroke-dasharray:none;stroke-opacity:1" transform="matrix(0.16,0,0,-0.16,0,1122.52)"/><path id="path29" d="m 2613,3692.33 h 37 v -15 l -2,-6 -2,-1 -3,-2 h -4 l -3,2 -2,1 -2,6 v 15" style="fill:none;stroke:#000000;stroke-width:6;stroke-linecap:round;stroke-linejoin:round;stroke-miterlimit:10;stroke-dasharray:none;stroke-opacity:1" transform="matrix(0.16,0,0,-0.16,0,1122.52)"/><path id="path30" d="m 2632,3680.33 -19,-12" style="fill:none;stroke:#000000;stroke-width:6;stroke-linecap:round;stroke-linejoin:round;stroke-miterlimit:10;stroke-dasharray:none;stroke-opacity:1" transform="matrix(0.16,0,0,-0.16,0,1122.52)"/><path id="path31" d="m 2613,3656.33 h 37 v -23" style="fill:none;stroke:#000000;stroke-width:6;stroke-linecap:round;stroke-linejoin:round;stroke-miterlimit:10;stroke-dasharray:none;stroke-opacity:1" transform="matrix(0.16,0,0,-0.16,0,1122.52)"/><path id="path32" d="m 2632,3656.33 v -14" style="fill:none;stroke:#000000;stroke-width:6;stroke-linecap:round;stroke-linejoin:round;stroke-miterlimit:10;stroke-dasharray:none;stroke-opacity:1" transform="matrix(0.16,0,0,-0.16,0,1122.52)"/><path id="path33" d="m 2613,3656.33 v -23" style="fill:none;stroke:#000000;stroke-width:6;stroke-linecap:round;stroke-linejoin:round;stroke-miterlimit:10;stroke-dasharray:none;stroke-opacity:1" transform="matrix(0.16,0,0,-0.16,0,1122.52)"/><path id="path34" d="m 2613,3623.33 37,-14 -37,-14" style="fill:none;stroke:#000000;stroke-width:6;stroke-linecap:round;stroke-linejoin:round;stroke-miterlimit:10;stroke-dasharray:none;stroke-opacity:1" transform="matrix(0.16,0,0,-0.16,0,1122.52)"/><path id="path35" d="m 2625,3617.33 v -17" style="fill:none;stroke:#000000;stroke-width:6;stroke-linecap:round;stroke-linejoin:round;stroke-miterlimit:10;stroke-dasharray:none;stroke-opacity:1" transform="matrix(0.16,0,0,-0.16,0,1122.52)"/><path id="path36" d="m 2644,3560.33 4,3 2,5 v 7 l -2,6 -4,3 h -3 l -4,-2 -1,-1 -2,-4 -4,-10 -1,-4 -2,-2 -4,-1 h -5 l -3,3 -2,5 v 7 l 2,6 3,3" style="fill:none;stroke:#000000;stroke-width:6;stroke-linecap:round;stroke-linejoin:round;stroke-miterlimit:10;stroke-dasharray:none;stroke-opacity:1" transform="matrix(0.16,0,0,-0.16,0,1122.52)"/><path id="path37" d="m 2613,3549.33 h 37 v -23" style="fill:none;stroke:#000000;stroke-width:6;stroke-linecap:round;stroke-linejoin:round;stroke-miterlimit:10;stroke-dasharray:none;stroke-opacity:1" transform="matrix(0.16,0,0,-0.16,0,1122.52)"/><path id="path38" d="m 2632,3549.33 v -14" style="fill:none;stroke:#000000;stroke-width:6;stroke-linecap:round;stroke-linejoin:round;stroke-miterlimit:10;stroke-dasharray:none;stroke-opacity:1" transform="matrix(0.16,0,0,-0.16,0,1122.52)"/><path id="path39" d="m 2613,3549.33 v -23" style="fill:none;stroke:#000000;stroke-width:6;stroke-linecap:round;stroke-linejoin:round;stroke-miterlimit:10;stroke-dasharray:none;stroke-opacity:1" transform="matrix(0.16,0,0,-0.16,0,1122.52)"/><path id="path40" d="m 2606,3729.33 v -213" style="fill:none;stroke:#000000;stroke-width:6;stroke-linecap:round;stroke-linejoin:round;stroke-miterlimit:10;stroke-dasharray:none;stroke-opacity:1" transform="matrix(0.16,0,0,-0.16,0,1122.52)"/><path id="path41" d="m 2589,3719.33 -2,3 -4,4 -3,1 -5,2 h -9 l -5,-2 -4,-1 -3,-4 -2,-3 v -7 l 2,-4 3,-3 4,-2 5,-2 h 9 l 5,2 3,2 4,3 2,4 v 7" style="fill:none;stroke:#000000;stroke-width:6;stroke-linecap:round;stroke-linejoin:round;stroke-miterlimit:10;stroke-dasharray:none;stroke-opacity:1" transform="matrix(0.16,0,0,-0.16,0,1122.52)"/><path id="path42" d="m 2589,3691.33 h -27 l -5,-2 -3,-4 -2,-5 v -3 l 2,-6 3,-3 5,-2 h 27" style="fill:none;stroke:#000000;stroke-width:6;stroke-linecap:round;stroke-linejoin:round;stroke-miterlimit:10;stroke-dasharray:none;stroke-opacity:1" transform="matrix(0.16,0,0,-0.16,0,1122.52)"/><path id="path43" d="m 2589,3640.33 h -37" style="fill:none;stroke:#000000;stroke-width:6;stroke-linecap:round;stroke-linejoin:round;stroke-miterlimit:10;stroke-dasharray:none;stroke-opacity:1" transform="matrix(0.16,0,0,-0.16,0,1122.52)"/><path id="path44" d="m 2589,3652.33 v -24" style="fill:none;stroke:#000000;stroke-width:6;stroke-linecap:round;stroke-linejoin:round;stroke-miterlimit:10;stroke-dasharray:none;stroke-opacity:1" transform="matrix(0.16,0,0,-0.16,0,1122.52)"/><path id="path45" d="m 2589,3621.33 h -37 v -21" style="fill:none;stroke:#000000;stroke-width:6;stroke-linecap:round;stroke-linejoin:round;stroke-miterlimit:10;stroke-dasharray:none;stroke-opacity:1" transform="matrix(0.16,0,0,-0.16,0,1122.52)"/><path id="path46" d="m 2552,3591.33 h 37 v -23" style="fill:none;stroke:#000000;stroke-width:6;stroke-linecap:round;stroke-linejoin:round;stroke-miterlimit:10;stroke-dasharray:none;stroke-opacity:1" transform="matrix(0.16,0,0,-0.16,0,1122.52)"/><path id="path47" d="m 2571,3591.33 v -14" style="fill:none;stroke:#000000;stroke-width:6;stroke-linecap:round;stroke-linejoin:round;stroke-miterlimit:10;stroke-dasharray:none;stroke-opacity:1" transform="matrix(0.16,0,0,-0.16,0,1122.52)"/><path id="path48" d="m 2552,3591.33 v -23" style="fill:none;stroke:#000000;stroke-width:6;stroke-linecap:round;stroke-linejoin:round;stroke-miterlimit:10;stroke-dasharray:none;stroke-opacity:1" transform="matrix(0.16,0,0,-0.16,0,1122.52)"/><path id="path49" d="m 2589,3546.33 h -37" style="fill:none;stroke:#000000;stroke-width:6;stroke-linecap:round;stroke-linejoin:round;stroke-miterlimit:10;stroke-dasharray:none;stroke-opacity:1" transform="matrix(0.16,0,0,-0.16,0,1122.52)"/><path id="path50" d="m 2589,3558.33 v -25" style="fill:none;stroke:#000000;stroke-width:6;stroke-linecap:round;stroke-linejoin:round;stroke-miterlimit:10;stroke-dasharray:none;stroke-opacity:1" transform="matrix(0.16,0,0,-0.16,0,1122.52)"/><path id="path51" d="m 2545,3729.33 v -203" style="fill:none;stroke:#000000;stroke-width:6;stroke-linecap:round;stroke-linejoin:round;stroke-miterlimit:10;stroke-dasharray:none;stroke-opacity:1" transform="matrix(0.16,0,0,-0.16,0,1122.52)"/><path id="path52" d="m 2508,1577.33 4,2 3,4 2,3 v 7 l -2,4 -3,3 -4,2 -5,2 h -9 l -5,-2 -3,-2 -4,-3 -2,-4 v -7 l 2,-3 4,-4 3,-2 h 5 v 9" style="fill:none;stroke:#000000;stroke-width:6;stroke-linecap:round;stroke-linejoin:round;stroke-miterlimit:10;stroke-dasharray:none;stroke-opacity:1" transform="matrix(0.16,0,0,-0.16,0,1122.52)"/><path id="path53" d="m 2480,1567.33 h 37 v -16 l -2,-5 -1,-2 -4,-2 h -3 l -4,2 -2,2 -1,5 v 16" style="fill:none;stroke:#000000;stroke-width:6;stroke-linecap:round;stroke-linejoin:round;stroke-miterlimit:10;stroke-dasharray:none;stroke-opacity:1" transform="matrix(0.16,0,0,-0.16,0,1122.52)"/><path id="path54" d="m 2500,1555.33 -20,-13" style="fill:none;stroke:#000000;stroke-width:6;stroke-linecap:round;stroke-linejoin:round;stroke-miterlimit:10;stroke-dasharray:none;stroke-opacity:1" transform="matrix(0.16,0,0,-0.16,0,1122.52)"/><path id="path55" d="m 2480,1530.33 h 37 v -22" style="fill:none;stroke:#000000;stroke-width:6;stroke-linecap:round;stroke-linejoin:round;stroke-miterlimit:10;stroke-dasharray:none;stroke-opacity:1" transform="matrix(0.16,0,0,-0.16,0,1122.52)"/><path id="path56" d="m 2500,1530.33 v -14" style="fill:none;stroke:#000000;stroke-width:6;stroke-linecap:round;stroke-linejoin:round;stroke-miterlimit:10;stroke-dasharray:none;stroke-opacity:1" transform="matrix(0.16,0,0,-0.16,0,1122.52)"/><path id="path57" d="m 2480,1530.33 v -22" style="fill:none;stroke:#000000;stroke-width:6;stroke-linecap:round;stroke-linejoin:round;stroke-miterlimit:10;stroke-dasharray:none;stroke-opacity:1" transform="matrix(0.16,0,0,-0.16,0,1122.52)"/><path id="path58" d="m 2480,1497.33 37,-14 -37,-14" style="fill:none;stroke:#000000;stroke-width:6;stroke-linecap:round;stroke-linejoin:round;stroke-miterlimit:10;stroke-dasharray:none;stroke-opacity:1" transform="matrix(0.16,0,0,-0.16,0,1122.52)"/><path id="path59" d="m 2493,1492.33 v -18" style="fill:none;stroke:#000000;stroke-width:6;stroke-linecap:round;stroke-linejoin:round;stroke-miterlimit:10;stroke-dasharray:none;stroke-opacity:1" transform="matrix(0.16,0,0,-0.16,0,1122.52)"/><path id="path60" d="m 2512,1434.33 3,4 2,5 v 7 l -2,5 -3,4 h -4 l -3,-2 -2,-2 -2,-3 -3,-11 -2,-3 -2,-2 -3,-2 h -5 l -4,4 -2,5 v 7 l 2,5 4,4" style="fill:none;stroke:#000000;stroke-width:6;stroke-linecap:round;stroke-linejoin:round;stroke-miterlimit:10;stroke-dasharray:none;stroke-opacity:1" transform="matrix(0.16,0,0,-0.16,0,1122.52)"/><path id="path61" d="m 2480,1424.33 h 37 v -23" style="fill:none;stroke:#000000;stroke-width:6;stroke-linecap:round;stroke-linejoin:round;stroke-miterlimit:10;stroke-dasharray:none;stroke-opacity:1" transform="matrix(0.16,0,0,-0.16,0,1122.52)"/><path id="path62" d="m 2500,1424.33 v -14" style="fill:none;stroke:#000000;stroke-width:6;stroke-linecap:round;stroke-linejoin:round;stroke-miterlimit:10;stroke-dasharray:none;stroke-opacity:1" transform="matrix(0.16,0,0,-0.16,0,1122.52)"/><path id="path63" d="m 2480,1424.33 v -23" style="fill:none;stroke:#000000;stroke-width:6;stroke-linecap:round;stroke-linejoin:round;stroke-miterlimit:10;stroke-dasharray:none;stroke-opacity:1" transform="matrix(0.16,0,0,-0.16,0,1122.52)"/><path id="path64" d="m 2473,1604.33 v -214" style="fill:none;stroke:#000000;stroke-width:6;stroke-linecap:round;stroke-linejoin:round;stroke-miterlimit:10;stroke-dasharray:none;stroke-opacity:1" transform="matrix(0.16,0,0,-0.16,0,1122.52)"/><path id="path65" d="m 2456,1593.33 -2,4 -3,3 -4,2 -5,2 h -9 l -5,-2 -3,-2 -4,-3 -2,-4 v -7 l 2,-3 4,-4 3,-2 5,-1 h 9 l 5,1 4,2 3,4 2,3 v 7" style="fill:none;stroke:#000000;stroke-width:6;stroke-linecap:round;stroke-linejoin:round;stroke-miterlimit:10;stroke-dasharray:none;stroke-opacity:1" transform="matrix(0.16,0,0,-0.16,0,1122.52)"/><path id="path66" d="m 2456,1565.33 h -26 l -5,-2 -4,-3 -2,-5 v -4 l 2,-5 4,-4 5,-1 h 26" style="fill:none;stroke:#000000;stroke-width:6;stroke-linecap:round;stroke-linejoin:round;stroke-miterlimit:10;stroke-dasharray:none;stroke-opacity:1" transform="matrix(0.16,0,0,-0.16,0,1122.52)"/><path id="path67" d="m 2456,1515.33 h -37" style="fill:none;stroke:#000000;stroke-width:6;stroke-linecap:round;stroke-linejoin:round;stroke-miterlimit:10;stroke-dasharray:none;stroke-opacity:1" transform="matrix(0.16,0,0,-0.16,0,1122.52)"/><path id="path68" d="m 2456,1527.33 v -25" style="fill:none;stroke:#000000;stroke-width:6;stroke-linecap:round;stroke-linejoin:round;stroke-miterlimit:10;stroke-dasharray:none;stroke-opacity:1" transform="matrix(0.16,0,0,-0.16,0,1122.52)"/><path id="path69" d="m 2456,1495.33 h -37 v -21" style="fill:none;stroke:#000000;stroke-width:6;stroke-linecap:round;stroke-linejoin:round;stroke-miterlimit:10;stroke-dasharray:none;stroke-opacity:1" transform="matrix(0.16,0,0,-0.16,0,1122.52)"/><path id="path70" d="m 2419,1466.33 h 37 v -23" style="fill:none;stroke:#000000;stroke-width:6;stroke-linecap:round;stroke-linejoin:round;stroke-miterlimit:10;stroke-dasharray:none;stroke-opacity:1" transform="matrix(0.16,0,0,-0.16,0,1122.52)"/><path id="path71" d="m 2439,1466.33 v -14" style="fill:none;stroke:#000000;stroke-width:6;stroke-linecap:round;stroke-linejoin:round;stroke-miterlimit:10;stroke-dasharray:none;stroke-opacity:1" transform="matrix(0.16,0,0,-0.16,0,1122.52)"/><path id="path72" d="m 2419,1466.33 v -23" style="fill:none;stroke:#000000;stroke-width:6;stroke-linecap:round;stroke-linejoin:round;stroke-miterlimit:10;stroke-dasharray:none;stroke-opacity:1" transform="matrix(0.16,0,0,-0.16,0,1122.52)"/><path id="path73" d="m 2456,1420.33 h -37" style="fill:none;stroke:#000000;stroke-width:6;stroke-linecap:round;stroke-linejoin:round;stroke-miterlimit:10;stroke-dasharray:none;stroke-opacity:1" transform="matrix(0.16,0,0,-0.16,0,1122.52)"/><path id="path74" d="m 2456,1432.33 v -24" style="fill:none;stroke:#000000;stroke-width:6;stroke-linecap:round;stroke-linejoin:round;stroke-miterlimit:10;stroke-dasharray:none;stroke-opacity:1" transform="matrix(0.16,0,0,-0.16,0,1122.52)"/><path id="path75" d="m 2412,1604.33 v -203" style="fill:none;stroke:#000000;stroke-width:6;stroke-linecap:round;stroke-linejoin:round;stroke-miterlimit:10;stroke-dasharray:none;stroke-opacity:1" transform="matrix(0.16,0,0,-0.16,0,1122.52)"/><path id="path76" d="m 2486,1733.33 v -104" style="fill:none;stroke:#000000;stroke-width:6;stroke-linecap:round;stroke-linejoin:round;stroke-miterlimit:10;stroke-dasharray:none;stroke-opacity:1" transform="matrix(0.16,0,0,-0.16,0,1122.52)"/><path id="path77" d="m 2597,1790.33 -111,-57" style="fill:none;stroke:#000000;stroke-width:6;stroke-linecap:round;stroke-linejoin:round;stroke-miterlimit:10;stroke-dasharray:none;stroke-opacity:1" transform="matrix(0.16,0,0,-0.16,0,1122.52)"/><path id="path78" d="m 2593,1797.33 46,15 -38,-29" style="fill:#000000;fill-opacity:1;fill-rule:evenodd;stroke:none" transform="matrix(0.16,0,0,-0.16,0,1122.52)"/><path id="path79" d="m 3974,3938.33 4,2 3,4 2,3 v 7 l -2,4 -3,3 -4,2 -5,2 h -9 l -5,-2 -4,-2 -3,-3 -2,-4 v -7 l 2,-3 3,-4 4,-2 h 5 v 9" style="fill:none;stroke:#000000;stroke-width:6;stroke-linecap:round;stroke-linejoin:round;stroke-miterlimit:10;stroke-dasharray:none;stroke-opacity:1" transform="matrix(0.16,0,0,-0.16,0,1122.52)"/><path id="path80" d="m 3946,3928.33 h 37 v -16 l -2,-5 -2,-2 -3,-2 h -4 l -3,2 -2,2 -2,5 v 16" style="fill:none;stroke:#000000;stroke-width:6;stroke-linecap:round;stroke-linejoin:round;stroke-miterlimit:10;stroke-dasharray:none;stroke-opacity:1" transform="matrix(0.16,0,0,-0.16,0,1122.52)"/><path id="path81" d="m 3965,3916.33 -19,-13" style="fill:none;stroke:#000000;stroke-width:6;stroke-linecap:round;stroke-linejoin:round;stroke-miterlimit:10;stroke-dasharray:none;stroke-opacity:1" transform="matrix(0.16,0,0,-0.16,0,1122.52)"/><path id="path82" d="m 3946,3891.33 h 37 v -22" style="fill:none;stroke:#000000;stroke-width:6;stroke-linecap:round;stroke-linejoin:round;stroke-miterlimit:10;stroke-dasharray:none;stroke-opacity:1" transform="matrix(0.16,0,0,-0.16,0,1122.52)"/><path id="path83" d="m 3965,3891.33 v -14" style="fill:none;stroke:#000000;stroke-width:6;stroke-linecap:round;stroke-linejoin:round;stroke-miterlimit:10;stroke-dasharray:none;stroke-opacity:1" transform="matrix(0.16,0,0,-0.16,0,1122.52)"/><path id="path84" d="m 3946,3891.33 v -22" style="fill:none;stroke:#000000;stroke-width:6;stroke-linecap:round;stroke-linejoin:round;stroke-miterlimit:10;stroke-dasharray:none;stroke-opacity:1" transform="matrix(0.16,0,0,-0.16,0,1122.52)"/><path id="path85" d="m 3946,3858.33 37,-14 -37,-14" style="fill:none;stroke:#000000;stroke-width:6;stroke-linecap:round;stroke-linejoin:round;stroke-miterlimit:10;stroke-dasharray:none;stroke-opacity:1" transform="matrix(0.16,0,0,-0.16,0,1122.52)"/><path id="path86" d="m 3958,3853.33 v -18" style="fill:none;stroke:#000000;stroke-width:6;stroke-linecap:round;stroke-linejoin:round;stroke-miterlimit:10;stroke-dasharray:none;stroke-opacity:1" transform="matrix(0.16,0,0,-0.16,0,1122.52)"/><path id="path87" d="m 3978,3795.33 3,4 2,5 v 7 l -2,5 -3,4 h -4 l -3,-2 -2,-2 -2,-3 -3,-11 -2,-3 -2,-2 -3,-2 h -6 l -3,4 -2,5 v 7 l 2,5 3,4" style="fill:none;stroke:#000000;stroke-width:6;stroke-linecap:round;stroke-linejoin:round;stroke-miterlimit:10;stroke-dasharray:none;stroke-opacity:1" transform="matrix(0.16,0,0,-0.16,0,1122.52)"/><path id="path88" d="m 3946,3785.33 h 37 v -23" style="fill:none;stroke:#000000;stroke-width:6;stroke-linecap:round;stroke-linejoin:round;stroke-miterlimit:10;stroke-dasharray:none;stroke-opacity:1" transform="matrix(0.16,0,0,-0.16,0,1122.52)"/><path id="path89" d="m 3965,3785.33 v -14" style="fill:none;stroke:#000000;stroke-width:6;stroke-linecap:round;stroke-linejoin:round;stroke-miterlimit:10;stroke-dasharray:none;stroke-opacity:1" transform="matrix(0.16,0,0,-0.16,0,1122.52)"/><path id="path90" d="m 3946,3785.33 v -23" style="fill:none;stroke:#000000;stroke-width:6;stroke-linecap:round;stroke-linejoin:round;stroke-miterlimit:10;stroke-dasharray:none;stroke-opacity:1" transform="matrix(0.16,0,0,-0.16,0,1122.52)"/><path id="path91" d="m 3946,3718.33 h 37" style="fill:none;stroke:#000000;stroke-width:6;stroke-linecap:round;stroke-linejoin:round;stroke-miterlimit:10;stroke-dasharray:none;stroke-opacity:1" transform="matrix(0.16,0,0,-0.16,0,1122.52)"/><path id="path92" d="m 3946,3704.33 h 37 l -37,-24 h 37" style="fill:none;stroke:#000000;stroke-width:6;stroke-linecap:round;stroke-linejoin:round;stroke-miterlimit:10;stroke-dasharray:none;stroke-opacity:1" transform="matrix(0.16,0,0,-0.16,0,1122.52)"/><path id="path93" d="m 3983,3666.33 h -37 v -21" style="fill:none;stroke:#000000;stroke-width:6;stroke-linecap:round;stroke-linejoin:round;stroke-miterlimit:10;stroke-dasharray:none;stroke-opacity:1" transform="matrix(0.16,0,0,-0.16,0,1122.52)"/><path id="path94" d="m 3946,3636.33 h 37 v -23" style="fill:none;stroke:#000000;stroke-width:6;stroke-linecap:round;stroke-linejoin:round;stroke-miterlimit:10;stroke-dasharray:none;stroke-opacity:1" transform="matrix(0.16,0,0,-0.16,0,1122.52)"/><path id="path95" d="m 3965,3636.33 v -14" style="fill:none;stroke:#000000;stroke-width:6;stroke-linecap:round;stroke-linejoin:round;stroke-miterlimit:10;stroke-dasharray:none;stroke-opacity:1" transform="matrix(0.16,0,0,-0.16,0,1122.52)"/><path id="path96" d="m 3946,3636.33 v -23" style="fill:none;stroke:#000000;stroke-width:6;stroke-linecap:round;stroke-linejoin:round;stroke-miterlimit:10;stroke-dasharray:none;stroke-opacity:1" transform="matrix(0.16,0,0,-0.16,0,1122.52)"/><path id="path97" d="m 3983,3591.33 h -37" style="fill:none;stroke:#000000;stroke-width:6;stroke-linecap:round;stroke-linejoin:round;stroke-miterlimit:10;stroke-dasharray:none;stroke-opacity:1" transform="matrix(0.16,0,0,-0.16,0,1122.52)"/><path id="path98" d="m 3983,3603.33 v -25" style="fill:none;stroke:#000000;stroke-width:6;stroke-linecap:round;stroke-linejoin:round;stroke-miterlimit:10;stroke-dasharray:none;stroke-opacity:1" transform="matrix(0.16,0,0,-0.16,0,1122.52)"/><path id="path99" d="m 3812,3358.33 -38,-16 31,28" style="fill:#000000;fill-opacity:1;fill-rule:evenodd;stroke:none" transform="matrix(0.16,0,0,-0.16,0,1122.52)"/><path id="path100" d="m 3809,3364.33 123,80" style="fill:none;stroke:#000000;stroke-width:6;stroke-linecap:round;stroke-linejoin:round;stroke-miterlimit:10;stroke-dasharray:none;stroke-opacity:1" transform="matrix(0.16,0,0,-0.16,0,1122.52)"/><path id="path101" d="m 3932,3444.33 v 537" style="fill:none;stroke:#000000;stroke-width:6;stroke-linecap:round;stroke-linejoin:round;stroke-miterlimit:10;stroke-dasharray:none;stroke-opacity:1" transform="matrix(0.16,0,0,-0.16,0,1122.52)"/><path id="path102" d="m 2729,3380.33 21,-36 -32,28" style="fill:#000000;fill-opacity:1;fill-rule:evenodd;stroke:none" transform="matrix(0.16,0,0,-0.16,0,1122.52)"/><path id="path103" d="m 2724,3376.33 -118,146" style="fill:none;stroke:#000000;stroke-width:6;stroke-linecap:round;stroke-linejoin:round;stroke-miterlimit:10;stroke-dasharray:none;stroke-opacity:1" transform="matrix(0.16,0,0,-0.16,0,1122.52)"/><path id="path104" d="m 2606,3522.33 v 48" style="fill:none;stroke:#000000;stroke-width:6;stroke-linecap:round;stroke-linejoin:round;stroke-miterlimit:10;stroke-dasharray:none;stroke-opacity:1" transform="matrix(0.16,0,0,-0.16,0,1122.52)"/><path id="path105" d="m 3724,3342.33 h 72" style="fill:none;stroke:#000000;stroke-width:6;stroke-linecap:round;stroke-linejoin:round;stroke-miterlimit:10;stroke-dasharray:none;stroke-opacity:1" transform="matrix(0.16,0,0,-0.16,0,1122.52)"/><path id="path106" d="m 1126,5800.33 4,2 2,6 v 4 l -2,6 -6,4 -10,2 h -10 l -8,-2 -4,-4 -2,-6 v -2 l 2,-6 4,-4 6,-2 h 2 l 6,2 4,4 2,6 v 2 l -2,6 -4,4 -6,2" style="fill:none;stroke:#000000;stroke-width:6;stroke-linecap:round;stroke-linejoin:round;stroke-miterlimit:10;stroke-dasharray:none;stroke-opacity:1" transform="matrix(0.16,0,0,-0.16,0,1122.52)"/><path id="path107" d="m 1132,5780.33 v -21 l -16,12 v -6 l -2,-4 -2,-2 -6,-2 h -4 l -6,2 -4,4 -2,6 v 6 l 2,5 2,2 4,2" style="fill:none;stroke:#000000;stroke-width:6;stroke-linecap:round;stroke-linejoin:round;stroke-miterlimit:10;stroke-dasharray:none;stroke-opacity:1" transform="matrix(0.16,0,0,-0.16,0,1122.52)"/><path id="path108" d="m 1124,5745.33 2,-4 6,-6 h -42" style="fill:none;stroke:#000000;stroke-width:6;stroke-linecap:round;stroke-linejoin:round;stroke-miterlimit:10;stroke-dasharray:none;stroke-opacity:1" transform="matrix(0.16,0,0,-0.16,0,1122.52)"/><path id="path109" d="m 1132,5693.33 -28,20 v -30" style="fill:none;stroke:#000000;stroke-width:6;stroke-linecap:round;stroke-linejoin:round;stroke-miterlimit:10;stroke-dasharray:none;stroke-opacity:1" transform="matrix(0.16,0,0,-0.16,0,1122.52)"/><path id="path110" d="m 1132,5693.33 h -42" style="fill:none;stroke:#000000;stroke-width:6;stroke-linecap:round;stroke-linejoin:round;stroke-miterlimit:10;stroke-dasharray:none;stroke-opacity:1" transform="matrix(0.16,0,0,-0.16,0,1122.52)"/><path id="path111" d="m 1122,5605.33 4,2 4,4 2,4 v 8 l -2,4 -4,4 -4,2 -6,2 h -10 l -6,-2 -4,-2 -4,-4 -2,-4 v -8 l 2,-4 4,-4 4,-2" style="fill:none;stroke:#000000;stroke-width:6;stroke-linecap:round;stroke-linejoin:round;stroke-miterlimit:10;stroke-dasharray:none;stroke-opacity:1" transform="matrix(0.16,0,0,-0.16,0,1122.52)"/><path id="path112" d="m 1132,5589.33 v -22 l -16,12 v -6 l -2,-4 -2,-2 -6,-2 h -4 l -6,2 -4,4 -2,6 v 6 l 2,6 2,2 4,2" style="fill:none;stroke:#000000;stroke-width:6;stroke-linecap:round;stroke-linejoin:round;stroke-miterlimit:10;stroke-dasharray:none;stroke-opacity:1" transform="matrix(0.16,0,0,-0.16,0,1122.52)"/></g></svg>