<?xml version="1.0" encoding="UTF-8" standalone="no"?><!--Created with Inkscape (http://www.inkscape.org/)--><svg version="1.1" id="svg1" xmlns="http://www.w3.org/2000/svg" xmlns:svg="http://www.w3.org/2000/svg" viewBox="0 0 793.70667 1122.52"><defs id="defs1"/><g id="g1"><path id="path1" d="m 3735,3101.33 h 51 l -51,-19 51,-19 h -51" style="fill:none;stroke:#000000;stroke-width:6;stroke-linecap:round;stroke-linejoin:round;stroke-miterlimit:10;stroke-dasharray:none;stroke-opacity:1" transform="matrix(0.16,0,0,-0.16,0,1122.52)"/><path id="path2" d="m 3786,3019.33 -34,24 v -36" style="fill:none;stroke:#000000;stroke-width:6;stroke-linecap:round;stroke-linejoin:round;stroke-miterlimit:10;stroke-dasharray:none;stroke-opacity:1" transform="matrix(0.16,0,0,-0.16,0,1122.52)"/><path id="path3" d="m 3786,3019.33 h -51" style="fill:none;stroke:#000000;stroke-width:6;stroke-linecap:round;stroke-linejoin:round;stroke-miterlimit:10;stroke-dasharray:none;stroke-opacity:1" transform="matrix(0.16,0,0,-0.16,0,1122.52)"/><path id="path4" d="m 3786,2981.33 -3,7 -7,5 -12,2 h -7 l -12,-2 -8,-5 -2,-7 v -5 l 2,-7 8,-5 12,-2 h 7 l 12,2 7,5 3,7 v 5" style="fill:none;stroke:#000000;stroke-width:6;stroke-linecap:round;stroke-linejoin:round;stroke-miterlimit:10;stroke-dasharray:none;stroke-opacity:1" transform="matrix(0.16,0,0,-0.16,0,1122.52)"/><path id="path5" d="m 3735,2947.33 51,-33" style="fill:none;stroke:#000000;stroke-width:6;stroke-linecap:round;stroke-linejoin:round;stroke-miterlimit:10;stroke-dasharray:none;stroke-opacity:1" transform="matrix(0.16,0,0,-0.16,0,1122.52)"/><path id="path6" d="m 3786,2947.33 -51,-33" style="fill:none;stroke:#000000;stroke-width:6;stroke-linecap:round;stroke-linejoin:round;stroke-miterlimit:10;stroke-dasharray:none;stroke-opacity:1" transform="matrix(0.16,0,0,-0.16,0,1122.52)"/><path id="path7" d="m 3776,2899.33 2,-5 8,-7 h -51" style="fill:none;stroke:#000000;stroke-width:6;stroke-linecap:round;stroke-linejoin:round;stroke-miterlimit:10;stroke-dasharray:none;stroke-opacity:1" transform="matrix(0.16,0,0,-0.16,0,1122.52)"/><path id="path8" d="m 3740,2858.33 -3,3 -2,-3 2,-2" style="fill:none;stroke:#000000;stroke-width:6;stroke-linecap:round;stroke-linejoin:round;stroke-miterlimit:10;stroke-dasharray:none;stroke-opacity:1" transform="matrix(0.16,0,0,-0.16,0,1122.52)"/><path id="path9" d="m 3786,2808.33 v 24 l -22,2 2,-2 3,-7 v -8 l -3,-7 -4,-5 -8,-2 h -4 l -8,2 -5,5 -2,7 v 8 l 2,7 3,2 5,3" style="fill:none;stroke:#000000;stroke-width:6;stroke-linecap:round;stroke-linejoin:round;stroke-miterlimit:10;stroke-dasharray:none;stroke-opacity:1" transform="matrix(0.16,0,0,-0.16,0,1122.52)"/><path id="path10" d="m 3735,2789.33 h 51 v -22 l -3,-7 -2,-3 -5,-2 h -7 l -5,2 -2,3 -3,7 v 22" style="fill:none;stroke:#000000;stroke-width:6;stroke-linecap:round;stroke-linejoin:round;stroke-miterlimit:10;stroke-dasharray:none;stroke-opacity:1" transform="matrix(0.16,0,0,-0.16,0,1122.52)"/><path id="path11" d="m 3757,2738.33 v -43" style="fill:none;stroke:#000000;stroke-width:6;stroke-linecap:round;stroke-linejoin:round;stroke-miterlimit:10;stroke-dasharray:none;stroke-opacity:1" transform="matrix(0.16,0,0,-0.16,0,1122.52)"/><path id="path12" d="m 3786,2661.33 -3,7 -7,5 -12,3 h -7 l -12,-3 -8,-5 -2,-7 v -5 l 2,-7 8,-5 12,-2 h 7 l 12,2 7,5 3,7 v 5" style="fill:none;stroke:#000000;stroke-width:6;stroke-linecap:round;stroke-linejoin:round;stroke-miterlimit:10;stroke-dasharray:none;stroke-opacity:1" transform="matrix(0.16,0,0,-0.16,0,1122.52)"/><path id="path13" d="m 3776,2628.33 2,-5 8,-7 h -51" style="fill:none;stroke:#000000;stroke-width:6;stroke-linecap:round;stroke-linejoin:round;stroke-miterlimit:10;stroke-dasharray:none;stroke-opacity:1" transform="matrix(0.16,0,0,-0.16,0,1122.52)"/><path id="path14" d="m 3735,2543.33 h 51 l -51,-33 h 51" style="fill:none;stroke:#000000;stroke-width:6;stroke-linecap:round;stroke-linejoin:round;stroke-miterlimit:10;stroke-dasharray:none;stroke-opacity:1" transform="matrix(0.16,0,0,-0.16,0,1122.52)"/><path id="path15" d="m 3786,2476.33 -3,5 -5,5 -4,2 -8,3 h -12 l -7,-3 -5,-2 -5,-5 -2,-5 v -9 l 2,-5 5,-5 5,-2 7,-3 h 12 l 8,3 4,2 5,5 3,5 v 9" style="fill:none;stroke:#000000;stroke-width:6;stroke-linecap:round;stroke-linejoin:round;stroke-miterlimit:10;stroke-dasharray:none;stroke-opacity:1" transform="matrix(0.16,0,0,-0.16,0,1122.52)"/><path id="path16" d="m 3740,2435.33 -3,3 -2,-3 2,-2" style="fill:none;stroke:#000000;stroke-width:6;stroke-linecap:round;stroke-linejoin:round;stroke-miterlimit:10;stroke-dasharray:none;stroke-opacity:1" transform="matrix(0.16,0,0,-0.16,0,1122.52)"/><path id="path17" d="m 3725,3101.33 v -687" style="fill:none;stroke:#000000;stroke-width:6;stroke-linecap:round;stroke-linejoin:round;stroke-miterlimit:10;stroke-dasharray:none;stroke-opacity:1" transform="matrix(0.16,0,0,-0.16,0,1122.52)"/><path id="path18" d="m 3689,3065.33 5,2 5,5 2,5 v 10 l -2,4 -5,5 -5,3 -7,2 h -12 l -7,-2 -5,-3 -5,-5 -2,-4 v -10 l 2,-5 5,-5 5,-2" style="fill:none;stroke:#000000;stroke-width:6;stroke-linecap:round;stroke-linejoin:round;stroke-miterlimit:10;stroke-dasharray:none;stroke-opacity:1" transform="matrix(0.16,0,0,-0.16,0,1122.52)"/><path id="path19" d="m 3651,3051.33 50,-20 -50,-19" style="fill:none;stroke:#000000;stroke-width:6;stroke-linecap:round;stroke-linejoin:round;stroke-miterlimit:10;stroke-dasharray:none;stroke-opacity:1" transform="matrix(0.16,0,0,-0.16,0,1122.52)"/><path id="path20" d="m 3668,3043.33 v -24" style="fill:none;stroke:#000000;stroke-width:6;stroke-linecap:round;stroke-linejoin:round;stroke-miterlimit:10;stroke-dasharray:none;stroke-opacity:1" transform="matrix(0.16,0,0,-0.16,0,1122.52)"/><path id="path21" d="m 3651,2998.33 h 50 v -22 l -2,-7 -2,-3 -5,-2 h -5 l -5,2 -2,3 -3,7" style="fill:none;stroke:#000000;stroke-width:6;stroke-linecap:round;stroke-linejoin:round;stroke-miterlimit:10;stroke-dasharray:none;stroke-opacity:1" transform="matrix(0.16,0,0,-0.16,0,1122.52)"/><path id="path22" d="m 3677,2998.33 v -22 l -2,-7 -2,-3 -5,-2 h -7 l -5,2 -3,3 -2,7 v 22" style="fill:none;stroke:#000000;stroke-width:6;stroke-linecap:round;stroke-linejoin:round;stroke-miterlimit:10;stroke-dasharray:none;stroke-opacity:1" transform="matrix(0.16,0,0,-0.16,0,1122.52)"/><path id="path23" d="m 3701,2947.33 h -50 v -29" style="fill:none;stroke:#000000;stroke-width:6;stroke-linecap:round;stroke-linejoin:round;stroke-miterlimit:10;stroke-dasharray:none;stroke-opacity:1" transform="matrix(0.16,0,0,-0.16,0,1122.52)"/><path id="path24" d="m 3651,2906.33 h 50 v -31" style="fill:none;stroke:#000000;stroke-width:6;stroke-linecap:round;stroke-linejoin:round;stroke-miterlimit:10;stroke-dasharray:none;stroke-opacity:1" transform="matrix(0.16,0,0,-0.16,0,1122.52)"/><path id="path25" d="m 3677,2906.33 v -19" style="fill:none;stroke:#000000;stroke-width:6;stroke-linecap:round;stroke-linejoin:round;stroke-miterlimit:10;stroke-dasharray:none;stroke-opacity:1" transform="matrix(0.16,0,0,-0.16,0,1122.52)"/><path id="path26" d="m 3651,2906.33 v -31" style="fill:none;stroke:#000000;stroke-width:6;stroke-linecap:round;stroke-linejoin:round;stroke-miterlimit:10;stroke-dasharray:none;stroke-opacity:1" transform="matrix(0.16,0,0,-0.16,0,1122.52)"/><path id="path27" d="m 3689,2779.33 5,2 5,5 2,5 v 10 l -2,4 -5,5 -5,3 -7,2 h -12 l -7,-2 -5,-3 -5,-5 -2,-4 v -10 l 2,-5 5,-5 5,-2 h 7 v 12" style="fill:none;stroke:#000000;stroke-width:6;stroke-linecap:round;stroke-linejoin:round;stroke-miterlimit:10;stroke-dasharray:none;stroke-opacity:1" transform="matrix(0.16,0,0,-0.16,0,1122.52)"/><path id="path28" d="m 3701,2765.33 h -50 v -29" style="fill:none;stroke:#000000;stroke-width:6;stroke-linecap:round;stroke-linejoin:round;stroke-miterlimit:10;stroke-dasharray:none;stroke-opacity:1" transform="matrix(0.16,0,0,-0.16,0,1122.52)"/><path id="path29" d="m 3651,2724.33 50,-20 -50,-19" style="fill:none;stroke:#000000;stroke-width:6;stroke-linecap:round;stroke-linejoin:round;stroke-miterlimit:10;stroke-dasharray:none;stroke-opacity:1" transform="matrix(0.16,0,0,-0.16,0,1122.52)"/><path id="path30" d="m 3668,2717.33 v -25" style="fill:none;stroke:#000000;stroke-width:6;stroke-linecap:round;stroke-linejoin:round;stroke-miterlimit:10;stroke-dasharray:none;stroke-opacity:1" transform="matrix(0.16,0,0,-0.16,0,1122.52)"/><path id="path31" d="m 3651,2671.33 h 50 l -50,-34 h 50" style="fill:none;stroke:#000000;stroke-width:6;stroke-linecap:round;stroke-linejoin:round;stroke-miterlimit:10;stroke-dasharray:none;stroke-opacity:1" transform="matrix(0.16,0,0,-0.16,0,1122.52)"/><path id="path32" d="m 3651,2618.33 h 50 v -17 l -2,-7 -5,-5 -5,-2 -7,-3 h -12 l -7,3 -5,2 -5,5 -2,7 v 17" style="fill:none;stroke:#000000;stroke-width:6;stroke-linecap:round;stroke-linejoin:round;stroke-miterlimit:10;stroke-dasharray:none;stroke-opacity:1" transform="matrix(0.16,0,0,-0.16,0,1122.52)"/><path id="path33" d="m 3641,3101.33 v -534" style="fill:none;stroke:#000000;stroke-width:6;stroke-linecap:round;stroke-linejoin:round;stroke-miterlimit:10;stroke-dasharray:none;stroke-opacity:1" transform="matrix(0.16,0,0,-0.16,0,1122.52)"/><path id="path34" d="m 3755,3195.33 v -69" style="fill:none;stroke:#000000;stroke-width:6;stroke-linecap:round;stroke-linejoin:round;stroke-miterlimit:10;stroke-dasharray:none;stroke-opacity:1" transform="matrix(0.16,0,0,-0.16,0,1122.52)"/><path id="path35" d="m 3492,3449.33 -30,42 42,-30" style="fill:#000000;fill-opacity:1;fill-rule:evenodd;stroke:none" transform="matrix(0.16,0,0,-0.16,0,1122.52)"/><path id="path36" d="m 3498,3455.33 257,-260" style="fill:none;stroke:#000000;stroke-width:6;stroke-linecap:round;stroke-linejoin:round;stroke-miterlimit:10;stroke-dasharray:none;stroke-opacity:1" transform="matrix(0.16,0,0,-0.16,0,1122.52)"/><path id="path37" d="m 1248,3662.33 h 155" style="fill:none;stroke:#000000;stroke-width:6;stroke-linecap:round;stroke-linejoin:round;stroke-miterlimit:10;stroke-dasharray:none;stroke-opacity:1" transform="matrix(0.16,0,0,-0.16,0,1122.52)"/><path id="path38" d="m 1222,3659.33 v -22" style="fill:none;stroke:#000000;stroke-width:6;stroke-linecap:round;stroke-linejoin:round;stroke-miterlimit:10;stroke-dasharray:none;stroke-opacity:1" transform="matrix(0.16,0,0,-0.16,0,1122.52)"/><path id="path39" d="m 1429,3659.33 v -22" style="fill:none;stroke:#000000;stroke-width:6;stroke-linecap:round;stroke-linejoin:round;stroke-miterlimit:10;stroke-dasharray:none;stroke-opacity:1" transform="matrix(0.16,0,0,-0.16,0,1122.52)"/><path id="path40" d="m 1248,3634.33 h 155" style="fill:none;stroke:#000000;stroke-width:6;stroke-linecap:round;stroke-linejoin:round;stroke-miterlimit:10;stroke-dasharray:none;stroke-opacity:1" transform="matrix(0.16,0,0,-0.16,0,1122.52)"/><path id="path41" d="m 1377,3659.33 v -22" style="fill:none;stroke:#000000;stroke-width:6;stroke-linecap:round;stroke-linejoin:round;stroke-miterlimit:10;stroke-dasharray:none;stroke-opacity:1" transform="matrix(0.16,0,0,-0.16,0,1122.52)"/><path id="path42" d="m 1274,3659.33 v -22" style="fill:none;stroke:#000000;stroke-width:6;stroke-linecap:round;stroke-linejoin:round;stroke-miterlimit:10;stroke-dasharray:none;stroke-opacity:1" transform="matrix(0.16,0,0,-0.16,0,1122.52)"/><path id="path43" d="m 1274,3659.33 -8,2 -7,1 h -23 l -7,-1 -7,-2" style="fill:none;stroke:#000000;stroke-width:6;stroke-linecap:round;stroke-linejoin:round;stroke-miterlimit:10;stroke-dasharray:none;stroke-opacity:1" transform="matrix(0.16,0,0,-0.16,0,1122.52)"/><path id="path44" d="m 1377,3659.33 -14,2 -15,1 h -45 l -15,-1 -14,-2" style="fill:none;stroke:#000000;stroke-width:6;stroke-linecap:round;stroke-linejoin:round;stroke-miterlimit:10;stroke-dasharray:none;stroke-opacity:1" transform="matrix(0.16,0,0,-0.16,0,1122.52)"/><path id="path45" d="m 1429,3659.33 -7,2 -8,1 h -22 l -7,-1 -8,-2" style="fill:none;stroke:#000000;stroke-width:6;stroke-linecap:round;stroke-linejoin:round;stroke-miterlimit:10;stroke-dasharray:none;stroke-opacity:1" transform="matrix(0.16,0,0,-0.16,0,1122.52)"/><path id="path46" d="m 1377,3637.33 8,-1 7,-1 8,-1 h 7 l 7,1 8,1 7,1" style="fill:none;stroke:#000000;stroke-width:6;stroke-linecap:round;stroke-linejoin:round;stroke-miterlimit:10;stroke-dasharray:none;stroke-opacity:1" transform="matrix(0.16,0,0,-0.16,0,1122.52)"/><path id="path47" d="m 1222,3637.33 7,-1 7,-1 8,-1 h 7 l 8,1 7,1 8,1" style="fill:none;stroke:#000000;stroke-width:6;stroke-linecap:round;stroke-linejoin:round;stroke-miterlimit:10;stroke-dasharray:none;stroke-opacity:1" transform="matrix(0.16,0,0,-0.16,0,1122.52)"/><path id="path48" d="m 1274,3637.33 14,-1 15,-1 15,-1 h 15 l 15,1 15,1 14,1" style="fill:none;stroke:#000000;stroke-width:6;stroke-linecap:round;stroke-linejoin:round;stroke-miterlimit:10;stroke-dasharray:none;stroke-opacity:1" transform="matrix(0.16,0,0,-0.16,0,1122.52)"/><path id="path49" d="m 1244,3634.33 v -101" style="fill:none;stroke:#000000;stroke-width:6;stroke-linecap:round;stroke-linejoin:round;stroke-miterlimit:10;stroke-dasharray:none;stroke-opacity:1" transform="matrix(0.16,0,0,-0.16,0,1122.52)"/><path id="path50" d="m 1407,3634.33 v -101" style="fill:none;stroke:#000000;stroke-width:6;stroke-linecap:round;stroke-linejoin:round;stroke-miterlimit:10;stroke-dasharray:none;stroke-opacity:1" transform="matrix(0.16,0,0,-0.16,0,1122.52)"/><path id="path51" d="m 1244,3533.33 h 163" style="fill:none;stroke:#000000;stroke-width:6;stroke-linecap:round;stroke-linejoin:round;stroke-miterlimit:10;stroke-dasharray:none;stroke-opacity:1" transform="matrix(0.16,0,0,-0.16,0,1122.52)"/><path id="path52" d="m 1236,3449.33 h 179" style="fill:none;stroke:#000000;stroke-width:6;stroke-linecap:round;stroke-linejoin:round;stroke-miterlimit:10;stroke-dasharray:none;stroke-opacity:1" transform="matrix(0.16,0,0,-0.16,0,1122.52)"/><path id="path53" d="m 1236,3387.33 h 179" style="fill:none;stroke:#000000;stroke-width:6;stroke-linecap:round;stroke-linejoin:round;stroke-miterlimit:10;stroke-dasharray:none;stroke-opacity:1" transform="matrix(0.16,0,0,-0.16,0,1122.52)"/><path id="path54" d="m 1274,3530.33 -8,2 -7,1 h -23 l -7,-1 -7,-2" style="fill:none;stroke:#000000;stroke-width:6;stroke-linecap:round;stroke-linejoin:round;stroke-miterlimit:10;stroke-dasharray:none;stroke-opacity:1" transform="matrix(0.16,0,0,-0.16,0,1122.52)"/><path id="path55" d="m 1377,3530.33 -14,2 -15,1 h -45 l -15,-1 -14,-2" style="fill:none;stroke:#000000;stroke-width:6;stroke-linecap:round;stroke-linejoin:round;stroke-miterlimit:10;stroke-dasharray:none;stroke-opacity:1" transform="matrix(0.16,0,0,-0.16,0,1122.52)"/><path id="path56" d="m 1274,3530.33 v -78" style="fill:none;stroke:#000000;stroke-width:6;stroke-linecap:round;stroke-linejoin:round;stroke-miterlimit:10;stroke-dasharray:none;stroke-opacity:1" transform="matrix(0.16,0,0,-0.16,0,1122.52)"/><path id="path57" d="m 1429,3530.33 -7,2 -8,1 h -22 l -7,-1 -8,-2" style="fill:none;stroke:#000000;stroke-width:6;stroke-linecap:round;stroke-linejoin:round;stroke-miterlimit:10;stroke-dasharray:none;stroke-opacity:1" transform="matrix(0.16,0,0,-0.16,0,1122.52)"/><path id="path58" d="m 1377,3452.33 8,-1 7,-1 8,-1 h 7 l 7,1 8,1 7,1" style="fill:none;stroke:#000000;stroke-width:6;stroke-linecap:round;stroke-linejoin:round;stroke-miterlimit:10;stroke-dasharray:none;stroke-opacity:1" transform="matrix(0.16,0,0,-0.16,0,1122.52)"/><path id="path59" d="m 1377,3530.33 v -78" style="fill:none;stroke:#000000;stroke-width:6;stroke-linecap:round;stroke-linejoin:round;stroke-miterlimit:10;stroke-dasharray:none;stroke-opacity:1" transform="matrix(0.16,0,0,-0.16,0,1122.52)"/><path id="path60" d="m 1274,3452.33 14,-1 15,-1 15,-1 h 15 l 15,1 15,1 14,1" style="fill:none;stroke:#000000;stroke-width:6;stroke-linecap:round;stroke-linejoin:round;stroke-miterlimit:10;stroke-dasharray:none;stroke-opacity:1" transform="matrix(0.16,0,0,-0.16,0,1122.52)"/><path id="path61" d="m 1222,3452.33 7,-1 7,-1 8,-1 h 7 l 8,1 7,1 8,1" style="fill:none;stroke:#000000;stroke-width:6;stroke-linecap:round;stroke-linejoin:round;stroke-miterlimit:10;stroke-dasharray:none;stroke-opacity:1" transform="matrix(0.16,0,0,-0.16,0,1122.52)"/><path id="path62" d="m 1429,3530.33 v -78" style="fill:none;stroke:#000000;stroke-width:6;stroke-linecap:round;stroke-linejoin:round;stroke-miterlimit:10;stroke-dasharray:none;stroke-opacity:1" transform="matrix(0.16,0,0,-0.16,0,1122.52)"/><path id="path63" d="m 1222,3530.33 v -78" style="fill:none;stroke:#000000;stroke-width:6;stroke-linecap:round;stroke-linejoin:round;stroke-miterlimit:10;stroke-dasharray:none;stroke-opacity:1" transform="matrix(0.16,0,0,-0.16,0,1122.52)"/><path id="path64" d="m 1415,3449.33 v -62" style="fill:none;stroke:#000000;stroke-width:6;stroke-linecap:round;stroke-linejoin:round;stroke-miterlimit:10;stroke-dasharray:none;stroke-opacity:1" transform="matrix(0.16,0,0,-0.16,0,1122.52)"/><path id="path65" d="m 1236,3449.33 v -62" style="fill:none;stroke:#000000;stroke-width:6;stroke-linecap:round;stroke-linejoin:round;stroke-miterlimit:10;stroke-dasharray:none;stroke-opacity:1" transform="matrix(0.16,0,0,-0.16,0,1122.52)"/><path id="path66" d="m 1236,3331.33 h 179" style="fill:none;stroke:#000000;stroke-width:6;stroke-linecap:round;stroke-linejoin:round;stroke-miterlimit:10;stroke-dasharray:none;stroke-opacity:1" transform="matrix(0.16,0,0,-0.16,0,1122.52)"/><path id="path67" d="m 1377,3384.33 v -50" style="fill:none;stroke:#000000;stroke-width:6;stroke-linecap:round;stroke-linejoin:round;stroke-miterlimit:10;stroke-dasharray:none;stroke-opacity:1" transform="matrix(0.16,0,0,-0.16,0,1122.52)"/><path id="path68" d="m 1429,3384.33 v -50" style="fill:none;stroke:#000000;stroke-width:6;stroke-linecap:round;stroke-linejoin:round;stroke-miterlimit:10;stroke-dasharray:none;stroke-opacity:1" transform="matrix(0.16,0,0,-0.16,0,1122.52)"/><path id="path69" d="m 1274,3384.33 v -50" style="fill:none;stroke:#000000;stroke-width:6;stroke-linecap:round;stroke-linejoin:round;stroke-miterlimit:10;stroke-dasharray:none;stroke-opacity:1" transform="matrix(0.16,0,0,-0.16,0,1122.52)"/><path id="path70" d="m 1222,3384.33 v -50" style="fill:none;stroke:#000000;stroke-width:6;stroke-linecap:round;stroke-linejoin:round;stroke-miterlimit:10;stroke-dasharray:none;stroke-opacity:1" transform="matrix(0.16,0,0,-0.16,0,1122.52)"/><path id="path71" d="m 1222,3334.33 7,-1 7,-1 8,-1 h 7 l 8,1 7,1 8,1" style="fill:none;stroke:#000000;stroke-width:6;stroke-linecap:round;stroke-linejoin:round;stroke-miterlimit:10;stroke-dasharray:none;stroke-opacity:1" transform="matrix(0.16,0,0,-0.16,0,1122.52)"/><path id="path72" d="m 1274,3334.33 14,-1 15,-1 15,-1 h 15 l 15,1 15,1 14,1" style="fill:none;stroke:#000000;stroke-width:6;stroke-linecap:round;stroke-linejoin:round;stroke-miterlimit:10;stroke-dasharray:none;stroke-opacity:1" transform="matrix(0.16,0,0,-0.16,0,1122.52)"/><path id="path73" d="m 1377,3334.33 8,-1 7,-1 8,-1 h 7 l 7,1 8,1 7,1" style="fill:none;stroke:#000000;stroke-width:6;stroke-linecap:round;stroke-linejoin:round;stroke-miterlimit:10;stroke-dasharray:none;stroke-opacity:1" transform="matrix(0.16,0,0,-0.16,0,1122.52)"/><path id="path74" d="m 1274,3384.33 -8,2 -7,1 h -23 l -7,-1 -7,-2" style="fill:none;stroke:#000000;stroke-width:6;stroke-linecap:round;stroke-linejoin:round;stroke-miterlimit:10;stroke-dasharray:none;stroke-opacity:1" transform="matrix(0.16,0,0,-0.16,0,1122.52)"/><path id="path75" d="m 1377,3384.33 -14,2 -15,1 h -45 l -15,-1 -14,-2" style="fill:none;stroke:#000000;stroke-width:6;stroke-linecap:round;stroke-linejoin:round;stroke-miterlimit:10;stroke-dasharray:none;stroke-opacity:1" transform="matrix(0.16,0,0,-0.16,0,1122.52)"/><path id="path76" d="m 1244,3387.33 h 163" style="fill:none;stroke:#000000;stroke-width:6;stroke-linecap:round;stroke-linejoin:round;stroke-miterlimit:10;stroke-dasharray:none;stroke-opacity:1" transform="matrix(0.16,0,0,-0.16,0,1122.52)"/><path id="path77" d="m 1429,3384.33 -7,2 -8,1 h -22 l -7,-1 -8,-2" style="fill:none;stroke:#000000;stroke-width:6;stroke-linecap:round;stroke-linejoin:round;stroke-miterlimit:10;stroke-dasharray:none;stroke-opacity:1" transform="matrix(0.16,0,0,-0.16,0,1122.52)"/><path id="path78" d="m 1236,3298.33 h 179" style="fill:none;stroke:#000000;stroke-width:6;stroke-linecap:round;stroke-linejoin:round;stroke-miterlimit:10;stroke-dasharray:none;stroke-opacity:1" transform="matrix(0.16,0,0,-0.16,0,1122.52)"/><path id="path79" d="m 1236,3331.33 v -33" style="fill:none;stroke:#000000;stroke-width:6;stroke-linecap:round;stroke-linejoin:round;stroke-miterlimit:10;stroke-dasharray:none;stroke-opacity:1" transform="matrix(0.16,0,0,-0.16,0,1122.52)"/><path id="path80" d="m 1415,3331.33 v -33" style="fill:none;stroke:#000000;stroke-width:6;stroke-linecap:round;stroke-linejoin:round;stroke-miterlimit:10;stroke-dasharray:none;stroke-opacity:1" transform="matrix(0.16,0,0,-0.16,0,1122.52)"/><path id="path81" d="m 1236,3415.33 h 179" style="fill:none;stroke:#000000;stroke-width:6;stroke-linecap:round;stroke-linejoin:round;stroke-miterlimit:10;stroke-dasharray:none;stroke-opacity:1" transform="matrix(0.16,0,0,-0.16,0,1122.52)"/><path id="path82" d="m 1241,3415.33 v -28" style="fill:none;stroke:#000000;stroke-width:6;stroke-linecap:round;stroke-linejoin:round;stroke-miterlimit:10;stroke-dasharray:none;stroke-opacity:1" transform="matrix(0.16,0,0,-0.16,0,1122.52)"/><path id="path83" d="m 1410,3415.33 v -28" style="fill:none;stroke:#000000;stroke-width:6;stroke-linecap:round;stroke-linejoin:round;stroke-miterlimit:10;stroke-dasharray:none;stroke-opacity:1" transform="matrix(0.16,0,0,-0.16,0,1122.52)"/><path id="path84" d="m 1241,3415.33 v 4 l -1,2 -1,1 -2,1 h -1" style="fill:none;stroke:#000000;stroke-width:6;stroke-linecap:round;stroke-linejoin:round;stroke-miterlimit:10;stroke-dasharray:none;stroke-opacity:1" transform="matrix(0.16,0,0,-0.16,0,1122.52)"/><path id="path85" d="m 1415,3423.33 h -2 l -1,-1 -1,-1 -1,-2 v -4" style="fill:none;stroke:#000000;stroke-width:6;stroke-linecap:round;stroke-linejoin:round;stroke-miterlimit:10;stroke-dasharray:none;stroke-opacity:1" transform="matrix(0.16,0,0,-0.16,0,1122.52)"/><path id="path86" d="m 1244,3561.33 h 163" style="fill:none;stroke:#000000;stroke-width:6;stroke-linecap:round;stroke-linejoin:round;stroke-miterlimit:10;stroke-dasharray:none;stroke-opacity:1" transform="matrix(0.16,0,0,-0.16,0,1122.52)"/><path id="path87" d="m 1250,3561.33 v -28" style="fill:none;stroke:#000000;stroke-width:6;stroke-linecap:round;stroke-linejoin:round;stroke-miterlimit:10;stroke-dasharray:none;stroke-opacity:1" transform="matrix(0.16,0,0,-0.16,0,1122.52)"/><path id="path88" d="m 1401,3561.33 v -28" style="fill:none;stroke:#000000;stroke-width:6;stroke-linecap:round;stroke-linejoin:round;stroke-miterlimit:10;stroke-dasharray:none;stroke-opacity:1" transform="matrix(0.16,0,0,-0.16,0,1122.52)"/><path id="path89" d="m 1250,3561.33 v 2 l -1,2 -1,1 -1,1 -1,1 -2,1" style="fill:none;stroke:#000000;stroke-width:6;stroke-linecap:round;stroke-linejoin:round;stroke-miterlimit:10;stroke-dasharray:none;stroke-opacity:1" transform="matrix(0.16,0,0,-0.16,0,1122.52)"/><path id="path90" d="m 1407,3569.33 -2,-1 -1,-1 -1,-1 -1,-1 -1,-2 v -2" style="fill:none;stroke:#000000;stroke-width:6;stroke-linecap:round;stroke-linejoin:round;stroke-miterlimit:10;stroke-dasharray:none;stroke-opacity:1" transform="matrix(0.16,0,0,-0.16,0,1122.52)"/><path id="path91" d="m 1325,3246.33 v 115" style="fill:none;stroke:#000000;stroke-width:6;stroke-linecap:round;stroke-linejoin:round;stroke-miterlimit:10;stroke-dasharray:none;stroke-opacity:1" transform="matrix(0.16,0,0,-0.16,0,1122.52)"/><path id="path92" d="m 1325,3380.33 v 20" style="fill:none;stroke:#000000;stroke-width:6;stroke-linecap:round;stroke-linejoin:round;stroke-miterlimit:10;stroke-dasharray:none;stroke-opacity:1" transform="matrix(0.16,0,0,-0.16,0,1122.52)"/><path id="path93" d="m 1325,3419.33 v 117" style="fill:none;stroke:#000000;stroke-width:6;stroke-linecap:round;stroke-linejoin:round;stroke-miterlimit:10;stroke-dasharray:none;stroke-opacity:1" transform="matrix(0.16,0,0,-0.16,0,1122.52)"/><path id="path94" d="m 1325,3555.33 v 20" style="fill:none;stroke:#000000;stroke-width:6;stroke-linecap:round;stroke-linejoin:round;stroke-miterlimit:10;stroke-dasharray:none;stroke-opacity:1" transform="matrix(0.16,0,0,-0.16,0,1122.52)"/><path id="path95" d="m 1325,3594.33 v 115" style="fill:none;stroke:#000000;stroke-width:6;stroke-linecap:round;stroke-linejoin:round;stroke-miterlimit:10;stroke-dasharray:none;stroke-opacity:1" transform="matrix(0.16,0,0,-0.16,0,1122.52)"/><path id="path96" d="m 3281,3662.33 h 155" style="fill:none;stroke:#000000;stroke-width:6;stroke-linecap:round;stroke-linejoin:round;stroke-miterlimit:10;stroke-dasharray:none;stroke-opacity:1" transform="matrix(0.16,0,0,-0.16,0,1122.52)"/><path id="path97" d="m 3255,3659.33 v -22" style="fill:none;stroke:#000000;stroke-width:6;stroke-linecap:round;stroke-linejoin:round;stroke-miterlimit:10;stroke-dasharray:none;stroke-opacity:1" transform="matrix(0.16,0,0,-0.16,0,1122.52)"/><path id="path98" d="m 3462,3659.33 v -22" style="fill:none;stroke:#000000;stroke-width:6;stroke-linecap:round;stroke-linejoin:round;stroke-miterlimit:10;stroke-dasharray:none;stroke-opacity:1" transform="matrix(0.16,0,0,-0.16,0,1122.52)"/><path id="path99" d="m 3281,3634.33 h 155" style="fill:none;stroke:#000000;stroke-width:6;stroke-linecap:round;stroke-linejoin:round;stroke-miterlimit:10;stroke-dasharray:none;stroke-opacity:1" transform="matrix(0.16,0,0,-0.16,0,1122.52)"/><path id="path100" d="m 3410,3659.33 v -22" style="fill:none;stroke:#000000;stroke-width:6;stroke-linecap:round;stroke-linejoin:round;stroke-miterlimit:10;stroke-dasharray:none;stroke-opacity:1" transform="matrix(0.16,0,0,-0.16,0,1122.52)"/><path id="path101" d="m 3307,3659.33 v -22" style="fill:none;stroke:#000000;stroke-width:6;stroke-linecap:round;stroke-linejoin:round;stroke-miterlimit:10;stroke-dasharray:none;stroke-opacity:1" transform="matrix(0.16,0,0,-0.16,0,1122.52)"/><path id="path102" d="m 3307,3659.33 -8,2 -7,1 h -23 l -7,-1 -7,-2" style="fill:none;stroke:#000000;stroke-width:6;stroke-linecap:round;stroke-linejoin:round;stroke-miterlimit:10;stroke-dasharray:none;stroke-opacity:1" transform="matrix(0.16,0,0,-0.16,0,1122.52)"/><path id="path103" d="m 3410,3659.33 -15,2 -14,1 h -45 l -15,-1 -14,-2" style="fill:none;stroke:#000000;stroke-width:6;stroke-linecap:round;stroke-linejoin:round;stroke-miterlimit:10;stroke-dasharray:none;stroke-opacity:1" transform="matrix(0.16,0,0,-0.16,0,1122.52)"/><path id="path104" d="m 3462,3659.33 -7,2 -8,1 h -22 l -7,-1 -8,-2" style="fill:none;stroke:#000000;stroke-width:6;stroke-linecap:round;stroke-linejoin:round;stroke-miterlimit:10;stroke-dasharray:none;stroke-opacity:1" transform="matrix(0.16,0,0,-0.16,0,1122.52)"/><path id="path105" d="m 3410,3637.33 8,-1 7,-1 7,-1 h 8 l 7,1 8,1 7,1" style="fill:none;stroke:#000000;stroke-width:6;stroke-linecap:round;stroke-linejoin:round;stroke-miterlimit:10;stroke-dasharray:none;stroke-opacity:1" transform="matrix(0.16,0,0,-0.16,0,1122.52)"/><path id="path106" d="m 3255,3637.33 7,-1 7,-1 8,-1 h 7 l 8,1 7,1 8,1" style="fill:none;stroke:#000000;stroke-width:6;stroke-linecap:round;stroke-linejoin:round;stroke-miterlimit:10;stroke-dasharray:none;stroke-opacity:1" transform="matrix(0.16,0,0,-0.16,0,1122.52)"/><path id="path107" d="m 3307,3637.33 14,-1 15,-1 15,-1 h 15 l 15,1 14,1 15,1" style="fill:none;stroke:#000000;stroke-width:6;stroke-linecap:round;stroke-linejoin:round;stroke-miterlimit:10;stroke-dasharray:none;stroke-opacity:1" transform="matrix(0.16,0,0,-0.16,0,1122.52)"/><path id="path108" d="m 3277,3634.33 v -101" style="fill:none;stroke:#000000;stroke-width:6;stroke-linecap:round;stroke-linejoin:round;stroke-miterlimit:10;stroke-dasharray:none;stroke-opacity:1" transform="matrix(0.16,0,0,-0.16,0,1122.52)"/><path id="path109" d="m 3440,3634.33 v -101" style="fill:none;stroke:#000000;stroke-width:6;stroke-linecap:round;stroke-linejoin:round;stroke-miterlimit:10;stroke-dasharray:none;stroke-opacity:1" transform="matrix(0.16,0,0,-0.16,0,1122.52)"/><path id="path110" d="m 3277,3533.33 h 163" style="fill:none;stroke:#000000;stroke-width:6;stroke-linecap:round;stroke-linejoin:round;stroke-miterlimit:10;stroke-dasharray:none;stroke-opacity:1" transform="matrix(0.16,0,0,-0.16,0,1122.52)"/><path id="path111" d="m 3269,3449.33 h 179" style="fill:none;stroke:#000000;stroke-width:6;stroke-linecap:round;stroke-linejoin:round;stroke-miterlimit:10;stroke-dasharray:none;stroke-opacity:1" transform="matrix(0.16,0,0,-0.16,0,1122.52)"/><path id="path112" d="m 3269,3388.33 h 179" style="fill:none;stroke:#000000;stroke-width:6;stroke-linecap:round;stroke-linejoin:round;stroke-miterlimit:10;stroke-dasharray:none;stroke-opacity:1" transform="matrix(0.16,0,0,-0.16,0,1122.52)"/><path id="path113" d="m 3307,3530.33 -8,2 -7,1 h -23 l -7,-1 -7,-2" style="fill:none;stroke:#000000;stroke-width:6;stroke-linecap:round;stroke-linejoin:round;stroke-miterlimit:10;stroke-dasharray:none;stroke-opacity:1" transform="matrix(0.16,0,0,-0.16,0,1122.52)"/><path id="path114" d="m 3410,3530.33 -15,2 -14,1 h -45 l -15,-1 -14,-2" style="fill:none;stroke:#000000;stroke-width:6;stroke-linecap:round;stroke-linejoin:round;stroke-miterlimit:10;stroke-dasharray:none;stroke-opacity:1" transform="matrix(0.16,0,0,-0.16,0,1122.52)"/><path id="path115" d="m 3307,3530.33 v -78" style="fill:none;stroke:#000000;stroke-width:6;stroke-linecap:round;stroke-linejoin:round;stroke-miterlimit:10;stroke-dasharray:none;stroke-opacity:1" transform="matrix(0.16,0,0,-0.16,0,1122.52)"/><path id="path116" d="m 3462,3530.33 -7,2 -8,1 h -22 l -7,-1 -8,-2" style="fill:none;stroke:#000000;stroke-width:6;stroke-linecap:round;stroke-linejoin:round;stroke-miterlimit:10;stroke-dasharray:none;stroke-opacity:1" transform="matrix(0.16,0,0,-0.16,0,1122.52)"/><path id="path117" d="m 3410,3452.33 8,-1 7,-1 7,-1 h 8 l 7,1 8,1 7,1" style="fill:none;stroke:#000000;stroke-width:6;stroke-linecap:round;stroke-linejoin:round;stroke-miterlimit:10;stroke-dasharray:none;stroke-opacity:1" transform="matrix(0.16,0,0,-0.16,0,1122.52)"/><path id="path118" d="m 3410,3530.33 v -78" style="fill:none;stroke:#000000;stroke-width:6;stroke-linecap:round;stroke-linejoin:round;stroke-miterlimit:10;stroke-dasharray:none;stroke-opacity:1" transform="matrix(0.16,0,0,-0.16,0,1122.52)"/><path id="path119" d="m 3307,3452.33 14,-1 15,-1 15,-1 h 15 l 15,1 14,1 15,1" style="fill:none;stroke:#000000;stroke-width:6;stroke-linecap:round;stroke-linejoin:round;stroke-miterlimit:10;stroke-dasharray:none;stroke-opacity:1" transform="matrix(0.16,0,0,-0.16,0,1122.52)"/><path id="path120" d="m 3255,3452.33 7,-1 7,-1 8,-1 h 7 l 8,1 7,1 8,1" style="fill:none;stroke:#000000;stroke-width:6;stroke-linecap:round;stroke-linejoin:round;stroke-miterlimit:10;stroke-dasharray:none;stroke-opacity:1" transform="matrix(0.16,0,0,-0.16,0,1122.52)"/><path id="path121" d="m 3462,3530.33 v -78" style="fill:none;stroke:#000000;stroke-width:6;stroke-linecap:round;stroke-linejoin:round;stroke-miterlimit:10;stroke-dasharray:none;stroke-opacity:1" transform="matrix(0.16,0,0,-0.16,0,1122.52)"/><path id="path122" d="m 3255,3530.33 v -78" style="fill:none;stroke:#000000;stroke-width:6;stroke-linecap:round;stroke-linejoin:round;stroke-miterlimit:10;stroke-dasharray:none;stroke-opacity:1" transform="matrix(0.16,0,0,-0.16,0,1122.52)"/><path id="path123" d="m 3448,3449.33 v -61" style="fill:none;stroke:#000000;stroke-width:6;stroke-linecap:round;stroke-linejoin:round;stroke-miterlimit:10;stroke-dasharray:none;stroke-opacity:1" transform="matrix(0.16,0,0,-0.16,0,1122.52)"/><path id="path124" d="m 3269,3449.33 v -61" style="fill:none;stroke:#000000;stroke-width:6;stroke-linecap:round;stroke-linejoin:round;stroke-miterlimit:10;stroke-dasharray:none;stroke-opacity:1" transform="matrix(0.16,0,0,-0.16,0,1122.52)"/><path id="path125" d="m 3269,3331.33 h 179" style="fill:none;stroke:#000000;stroke-width:6;stroke-linecap:round;stroke-linejoin:round;stroke-miterlimit:10;stroke-dasharray:none;stroke-opacity:1" transform="matrix(0.16,0,0,-0.16,0,1122.52)"/><path id="path126" d="m 3410,3385.33 v -51" style="fill:none;stroke:#000000;stroke-width:6;stroke-linecap:round;stroke-linejoin:round;stroke-miterlimit:10;stroke-dasharray:none;stroke-opacity:1" transform="matrix(0.16,0,0,-0.16,0,1122.52)"/><path id="path127" d="m 3462,3385.33 v -51" style="fill:none;stroke:#000000;stroke-width:6;stroke-linecap:round;stroke-linejoin:round;stroke-miterlimit:10;stroke-dasharray:none;stroke-opacity:1" transform="matrix(0.16,0,0,-0.16,0,1122.52)"/><path id="path128" d="m 3307,3385.33 v -51" style="fill:none;stroke:#000000;stroke-width:6;stroke-linecap:round;stroke-linejoin:round;stroke-miterlimit:10;stroke-dasharray:none;stroke-opacity:1" transform="matrix(0.16,0,0,-0.16,0,1122.52)"/><path id="path129" d="m 3255,3385.33 v -51" style="fill:none;stroke:#000000;stroke-width:6;stroke-linecap:round;stroke-linejoin:round;stroke-miterlimit:10;stroke-dasharray:none;stroke-opacity:1" transform="matrix(0.16,0,0,-0.16,0,1122.52)"/><path id="path130" d="m 3255,3334.33 7,-1 7,-1 8,-1 h 7 l 8,1 7,1 8,1" style="fill:none;stroke:#000000;stroke-width:6;stroke-linecap:round;stroke-linejoin:round;stroke-miterlimit:10;stroke-dasharray:none;stroke-opacity:1" transform="matrix(0.16,0,0,-0.16,0,1122.52)"/><path id="path131" d="m 3307,3334.33 14,-1 15,-1 15,-1 h 15 l 15,1 14,1 15,1" style="fill:none;stroke:#000000;stroke-width:6;stroke-linecap:round;stroke-linejoin:round;stroke-miterlimit:10;stroke-dasharray:none;stroke-opacity:1" transform="matrix(0.16,0,0,-0.16,0,1122.52)"/><path id="path132" d="m 3410,3334.33 8,-1 7,-1 7,-1 h 8 l 7,1 8,1 7,1" style="fill:none;stroke:#000000;stroke-width:6;stroke-linecap:round;stroke-linejoin:round;stroke-miterlimit:10;stroke-dasharray:none;stroke-opacity:1" transform="matrix(0.16,0,0,-0.16,0,1122.52)"/><path id="path133" d="m 3307,3385.33 -8,1 -7,1 h -23 l -7,-1 -7,-1" style="fill:none;stroke:#000000;stroke-width:6;stroke-linecap:round;stroke-linejoin:round;stroke-miterlimit:10;stroke-dasharray:none;stroke-opacity:1" transform="matrix(0.16,0,0,-0.16,0,1122.52)"/><path id="path134" d="m 3410,3385.33 -15,1 -14,1 h -45 l -15,-1 -14,-1" style="fill:none;stroke:#000000;stroke-width:6;stroke-linecap:round;stroke-linejoin:round;stroke-miterlimit:10;stroke-dasharray:none;stroke-opacity:1" transform="matrix(0.16,0,0,-0.16,0,1122.52)"/><path id="path135" d="m 3277,3388.33 h 163" style="fill:none;stroke:#000000;stroke-width:6;stroke-linecap:round;stroke-linejoin:round;stroke-miterlimit:10;stroke-dasharray:none;stroke-opacity:1" transform="matrix(0.16,0,0,-0.16,0,1122.52)"/><path id="path136" d="m 3462,3385.33 -7,1 -8,1 h -22 l -7,-1 -8,-1" style="fill:none;stroke:#000000;stroke-width:6;stroke-linecap:round;stroke-linejoin:round;stroke-miterlimit:10;stroke-dasharray:none;stroke-opacity:1" transform="matrix(0.16,0,0,-0.16,0,1122.52)"/><path id="path137" d="m 3269,3298.33 h 179" style="fill:none;stroke:#000000;stroke-width:6;stroke-linecap:round;stroke-linejoin:round;stroke-miterlimit:10;stroke-dasharray:none;stroke-opacity:1" transform="matrix(0.16,0,0,-0.16,0,1122.52)"/><path id="path138" d="m 3269,3331.33 v -33" style="fill:none;stroke:#000000;stroke-width:6;stroke-linecap:round;stroke-linejoin:round;stroke-miterlimit:10;stroke-dasharray:none;stroke-opacity:1" transform="matrix(0.16,0,0,-0.16,0,1122.52)"/><path id="path139" d="m 3448,3331.33 v -33" style="fill:none;stroke:#000000;stroke-width:6;stroke-linecap:round;stroke-linejoin:round;stroke-miterlimit:10;stroke-dasharray:none;stroke-opacity:1" transform="matrix(0.16,0,0,-0.16,0,1122.52)"/><path id="path140" d="m 3269,3416.33 h 179" style="fill:none;stroke:#000000;stroke-width:6;stroke-linecap:round;stroke-linejoin:round;stroke-miterlimit:10;stroke-dasharray:none;stroke-opacity:1" transform="matrix(0.16,0,0,-0.16,0,1122.52)"/><path id="path141" d="m 3274,3416.33 v -28" style="fill:none;stroke:#000000;stroke-width:6;stroke-linecap:round;stroke-linejoin:round;stroke-miterlimit:10;stroke-dasharray:none;stroke-opacity:1" transform="matrix(0.16,0,0,-0.16,0,1122.52)"/><path id="path142" d="m 3443,3416.33 v -28" style="fill:none;stroke:#000000;stroke-width:6;stroke-linecap:round;stroke-linejoin:round;stroke-miterlimit:10;stroke-dasharray:none;stroke-opacity:1" transform="matrix(0.16,0,0,-0.16,0,1122.52)"/><path id="path143" d="m 3274,3416.33 v 3 l -1,2 -1,1 -2,1 h -1" style="fill:none;stroke:#000000;stroke-width:6;stroke-linecap:round;stroke-linejoin:round;stroke-miterlimit:10;stroke-dasharray:none;stroke-opacity:1" transform="matrix(0.16,0,0,-0.16,0,1122.52)"/><path id="path144" d="m 3448,3423.33 h -2 l -1,-1 -1,-1 -1,-2 -1,-2 1,-1" style="fill:none;stroke:#000000;stroke-width:6;stroke-linecap:round;stroke-linejoin:round;stroke-miterlimit:10;stroke-dasharray:none;stroke-opacity:1" transform="matrix(0.16,0,0,-0.16,0,1122.52)"/><path id="path145" d="m 3277,3561.33 h 163" style="fill:none;stroke:#000000;stroke-width:6;stroke-linecap:round;stroke-linejoin:round;stroke-miterlimit:10;stroke-dasharray:none;stroke-opacity:1" transform="matrix(0.16,0,0,-0.16,0,1122.52)"/><path id="path146" d="m 3283,3561.33 v -28" style="fill:none;stroke:#000000;stroke-width:6;stroke-linecap:round;stroke-linejoin:round;stroke-miterlimit:10;stroke-dasharray:none;stroke-opacity:1" transform="matrix(0.16,0,0,-0.16,0,1122.52)"/><path id="path147" d="m 3434,3561.33 v -28" style="fill:none;stroke:#000000;stroke-width:6;stroke-linecap:round;stroke-linejoin:round;stroke-miterlimit:10;stroke-dasharray:none;stroke-opacity:1" transform="matrix(0.16,0,0,-0.16,0,1122.52)"/><path id="path148" d="m 3283,3561.33 v 2 l -1,2 -1,1 -1,1 -1,1 -2,1" style="fill:none;stroke:#000000;stroke-width:6;stroke-linecap:round;stroke-linejoin:round;stroke-miterlimit:10;stroke-dasharray:none;stroke-opacity:1" transform="matrix(0.16,0,0,-0.16,0,1122.52)"/><path id="path149" d="m 3440,3569.33 -2,-1 -1,-1 -2,-1 v -1 l -1,-2 v -2" style="fill:none;stroke:#000000;stroke-width:6;stroke-linecap:round;stroke-linejoin:round;stroke-miterlimit:10;stroke-dasharray:none;stroke-opacity:1" transform="matrix(0.16,0,0,-0.16,0,1122.52)"/></g></svg>