<?xml version="1.0" encoding="UTF-8" standalone="no"?><!--Created with Inkscape (http://www.inkscape.org/)--><svg version="1.1" id="svg1" xmlns="http://www.w3.org/2000/svg" xmlns:svg="http://www.w3.org/2000/svg" viewBox="0 0 793.70667 1122.52"><defs id="defs1"/><g id="g1"><path id="path1" d="m 1215,5755.33 4,2 2,6 v 4 l -2,6 -6,4 -10,2 h -10 l -8,-2 -4,-4 -2,-6 v -2 l 2,-6 4,-4 6,-2 h 2 l 6,2 4,4 2,6 v 2 l -2,6 -4,4 -6,2" style="fill:none;stroke:#000000;stroke-width:6;stroke-linecap:round;stroke-linejoin:round;stroke-miterlimit:10;stroke-dasharray:none;stroke-opacity:1" transform="matrix(0.16,0,0,-0.16,0,1122.52)"/><path id="path2" d="M 3158,3853.33 H 2712" style="fill:none;stroke:#000000;stroke-width:6;stroke-linecap:round;stroke-linejoin:round;stroke-miterlimit:10;stroke-dasharray:none;stroke-opacity:1" transform="matrix(0.16,0,0,-0.16,0,1122.52)"/><path id="path3" d="M 3241,3547.33 H 2712" style="fill:none;stroke:#000000;stroke-width:6;stroke-linecap:round;stroke-linejoin:round;stroke-miterlimit:10;stroke-dasharray:none;stroke-opacity:1" transform="matrix(0.16,0,0,-0.16,0,1122.52)"/><path id="path4" d="m 2732,3815.33 v -229" style="fill:none;stroke:#000000;stroke-width:6;stroke-linecap:round;stroke-linejoin:round;stroke-miterlimit:10;stroke-dasharray:none;stroke-opacity:1" transform="matrix(0.16,0,0,-0.16,0,1122.52)"/><path id="path5" d="m 2738,3815.33 h -13 l 7,38" style="fill:#000000;fill-opacity:1;fill-rule:evenodd;stroke:none" transform="matrix(0.16,0,0,-0.16,0,1122.52)"/><path id="path6" d="m 2725,3586.33 h 13 l -6,-39" style="fill:#000000;fill-opacity:1;fill-rule:evenodd;stroke:none" transform="matrix(0.16,0,0,-0.16,0,1122.52)"/><path id="path7" d="m 2782,3746.33 1,-4 6,-5 h -38" style="fill:none;stroke:#000000;stroke-width:6;stroke-linecap:round;stroke-linejoin:round;stroke-miterlimit:10;stroke-dasharray:none;stroke-opacity:1" transform="matrix(0.16,0,0,-0.16,0,1122.52)"/><path id="path8" d="m 2780,3715.33 h 2 l 3,-2 2,-2 2,-3 v -8 l -2,-3 -2,-2 -3,-2 h -4 l -4,2 -5,3 -18,19 v -26" style="fill:none;stroke:#000000;stroke-width:6;stroke-linecap:round;stroke-linejoin:round;stroke-miterlimit:10;stroke-dasharray:none;stroke-opacity:1" transform="matrix(0.16,0,0,-0.16,0,1122.52)"/><path id="path9" d="m 2789,3669.33 -2,6 -5,3 -10,2 h -5 l -9,-2 -6,-3 -1,-6 v -3 l 1,-6 6,-3 9,-2 h 5 l 10,2 5,3 2,6 v 3" style="fill:none;stroke:#000000;stroke-width:6;stroke-linecap:round;stroke-linejoin:round;stroke-miterlimit:10;stroke-dasharray:none;stroke-opacity:1" transform="matrix(0.16,0,0,-0.16,0,1122.52)"/><path id="path10" d="M 3158,3853.33 H 2292" style="fill:none;stroke:#000000;stroke-width:6;stroke-linecap:round;stroke-linejoin:round;stroke-miterlimit:10;stroke-dasharray:none;stroke-opacity:1" transform="matrix(0.16,0,0,-0.16,0,1122.52)"/><path id="path11" d="M 3153,3496.33 H 2292" style="fill:none;stroke:#000000;stroke-width:6;stroke-linecap:round;stroke-linejoin:round;stroke-miterlimit:10;stroke-dasharray:none;stroke-opacity:1" transform="matrix(0.16,0,0,-0.16,0,1122.52)"/><path id="path12" d="m 2311,3815.33 v -280" style="fill:none;stroke:#000000;stroke-width:6;stroke-linecap:round;stroke-linejoin:round;stroke-miterlimit:10;stroke-dasharray:none;stroke-opacity:1" transform="matrix(0.16,0,0,-0.16,0,1122.52)"/><path id="path13" d="m 2317,3815.33 h -13 l 7,38" style="fill:#000000;fill-opacity:1;fill-rule:evenodd;stroke:none" transform="matrix(0.16,0,0,-0.16,0,1122.52)"/><path id="path14" d="m 2304,3535.33 h 13 l -6,-39" style="fill:#000000;fill-opacity:1;fill-rule:evenodd;stroke:none" transform="matrix(0.16,0,0,-0.16,0,1122.52)"/><path id="path15" d="m 2361,3720.33 2,-3 5,-6 h -38" style="fill:none;stroke:#000000;stroke-width:6;stroke-linecap:round;stroke-linejoin:round;stroke-miterlimit:10;stroke-dasharray:none;stroke-opacity:1" transform="matrix(0.16,0,0,-0.16,0,1122.52)"/><path id="path16" d="m 2368,3673.33 -25,18 v -27" style="fill:none;stroke:#000000;stroke-width:6;stroke-linecap:round;stroke-linejoin:round;stroke-miterlimit:10;stroke-dasharray:none;stroke-opacity:1" transform="matrix(0.16,0,0,-0.16,0,1122.52)"/><path id="path17" d="m 2368,3673.33 h -38" style="fill:none;stroke:#000000;stroke-width:6;stroke-linecap:round;stroke-linejoin:round;stroke-miterlimit:10;stroke-dasharray:none;stroke-opacity:1" transform="matrix(0.16,0,0,-0.16,0,1122.52)"/><path id="path18" d="m 2368,3644.33 -2,5 -5,4 -9,2 h -6 l -9,-2 -5,-4 -2,-5 v -4 l 2,-5 5,-4 9,-2 h 6 l 9,2 5,4 2,5 v 4" style="fill:none;stroke:#000000;stroke-width:6;stroke-linecap:round;stroke-linejoin:round;stroke-miterlimit:10;stroke-dasharray:none;stroke-opacity:1" transform="matrix(0.16,0,0,-0.16,0,1122.52)"/><path id="path19" d="M 3343,3853.33 H 3177" style="fill:none;stroke:#000000;stroke-width:6;stroke-linecap:round;stroke-linejoin:round;stroke-miterlimit:10;stroke-dasharray:none;stroke-opacity:1" transform="matrix(0.16,0,0,-0.16,0,1122.52)"/><path id="path20" d="m 3343,3853.33 v -357" style="fill:none;stroke:#000000;stroke-width:6;stroke-linecap:round;stroke-linejoin:round;stroke-miterlimit:10;stroke-dasharray:none;stroke-opacity:1" transform="matrix(0.16,0,0,-0.16,0,1122.52)"/><path id="path21" d="m 3177,3853.33 v -357" style="fill:none;stroke:#000000;stroke-width:6;stroke-linecap:round;stroke-linejoin:round;stroke-miterlimit:10;stroke-dasharray:none;stroke-opacity:1" transform="matrix(0.16,0,0,-0.16,0,1122.52)"/><path id="path22" d="m 3283,3853.33 v -283" style="fill:none;stroke:#000000;stroke-width:6;stroke-linecap:round;stroke-linejoin:round;stroke-miterlimit:10;stroke-dasharray:none;stroke-opacity:1" transform="matrix(0.16,0,0,-0.16,0,1122.52)"/><path id="path23" d="m 3237,3853.33 v -283" style="fill:none;stroke:#000000;stroke-width:6;stroke-linecap:round;stroke-linejoin:round;stroke-miterlimit:10;stroke-dasharray:none;stroke-opacity:1" transform="matrix(0.16,0,0,-0.16,0,1122.52)"/><path id="path24" d="m 3483,3808.33 v 24" style="fill:none;stroke:#000000;stroke-width:6;stroke-linecap:round;stroke-linejoin:round;stroke-miterlimit:10;stroke-dasharray:none;stroke-opacity:1" transform="matrix(0.16,0,0,-0.16,0,1122.52)"/><path id="path25" d="m 3483,3825.33 5,5 3,2 h 6 l 3,-2 2,-5 v -17" style="fill:none;stroke:#000000;stroke-width:6;stroke-linecap:round;stroke-linejoin:round;stroke-miterlimit:10;stroke-dasharray:none;stroke-opacity:1" transform="matrix(0.16,0,0,-0.16,0,1122.52)"/><path id="path26" d="m 3502,3825.33 5,5 3,2 h 5 l 4,-2 1,-5 v -17" style="fill:none;stroke:#000000;stroke-width:6;stroke-linecap:round;stroke-linejoin:round;stroke-miterlimit:10;stroke-dasharray:none;stroke-opacity:1" transform="matrix(0.16,0,0,-0.16,0,1122.52)"/><path id="path27" d="m 3554,3839.33 -1,3 -6,2 h -3 l -5,-2 -3,-5 -2,-9 v -8 l 2,-7 3,-3 5,-2 h 2 l 5,2 3,3 2,5 v 2 l -2,5 -3,3 -5,2 h -2 l -5,-2 -3,-3 -2,-5" style="fill:none;stroke:#000000;stroke-width:6;stroke-linecap:round;stroke-linejoin:round;stroke-miterlimit:10;stroke-dasharray:none;stroke-opacity:1" transform="matrix(0.16,0,0,-0.16,0,1122.52)"/><path id="path28" d="m 3237,3570.33 v -3 l 1,-3 1,-2 1,-3 2,-3 2,-2 2,-2 2,-2 3,-1 3,-1 h 3 l 3,-1 3,1 h 3 l 3,1 2,1 3,2 2,2 2,2 2,3 1,3 1,2 1,3 v 3" style="fill:none;stroke:#000000;stroke-width:6;stroke-linecap:round;stroke-linejoin:round;stroke-miterlimit:10;stroke-dasharray:none;stroke-opacity:1" transform="matrix(0.16,0,0,-0.16,0,1122.52)"/><path id="path29" d="m 3177,3696.33 v 47" style="fill:none;stroke:#000000;stroke-width:6;stroke-linecap:round;stroke-linejoin:round;stroke-miterlimit:10;stroke-dasharray:none;stroke-opacity:1" transform="matrix(0.16,0,0,-0.16,0,1122.52)"/><path id="path30" d="m 3343,3717.33 v 26" style="fill:none;stroke:#000000;stroke-width:6;stroke-linecap:round;stroke-linejoin:round;stroke-miterlimit:10;stroke-dasharray:none;stroke-opacity:1" transform="matrix(0.16,0,0,-0.16,0,1122.52)"/><path id="path31" d="m 3343,3724.33 h 173" style="fill:none;stroke:#000000;stroke-width:6;stroke-linecap:round;stroke-linejoin:round;stroke-miterlimit:10;stroke-dasharray:none;stroke-opacity:1" transform="matrix(0.16,0,0,-0.16,0,1122.52)"/><path id="path32" d="m 3215,3724.33 h 89" style="fill:none;stroke:#000000;stroke-width:6;stroke-linecap:round;stroke-linejoin:round;stroke-miterlimit:10;stroke-dasharray:none;stroke-opacity:1" transform="matrix(0.16,0,0,-0.16,0,1122.52)"/><path id="path33" d="m 3215,3730.33 v -13 l -38,7" style="fill:#000000;fill-opacity:1;fill-rule:evenodd;stroke:none" transform="matrix(0.16,0,0,-0.16,0,1122.52)"/><path id="path34" d="m 3304,3717.33 v 13 l 39,-6" style="fill:#000000;fill-opacity:1;fill-rule:evenodd;stroke:none" transform="matrix(0.16,0,0,-0.16,0,1122.52)"/><path id="path35" d="m 3409,3774.33 -4,-2 -3,-4 -2,-5 v -4 l 2,-5 3,-4 4,-2 h 6 l 3,2 4,4 2,5 v 4 l -2,5 -4,4 -3,2 h -6" style="fill:none;stroke:#000000;stroke-width:6;stroke-linecap:round;stroke-linejoin:round;stroke-miterlimit:10;stroke-dasharray:none;stroke-opacity:1" transform="matrix(0.16,0,0,-0.16,0,1122.52)"/><path id="path36" d="m 3420,3779.33 -16,-36" style="fill:none;stroke:#000000;stroke-width:6;stroke-linecap:round;stroke-linejoin:round;stroke-miterlimit:10;stroke-dasharray:none;stroke-opacity:1" transform="matrix(0.16,0,0,-0.16,0,1122.52)"/><path id="path37" d="m 3456,3776.33 -1,3 -6,2 h -4 l -5,-2 -4,-5 -1,-9 v -9 l 1,-8 4,-3 5,-2 h 2 l 6,2 3,3 2,6 v 2 l -2,5 -3,4 -6,2 h -2 l -5,-2 -4,-4 -1,-5" style="fill:none;stroke:#000000;stroke-width:6;stroke-linecap:round;stroke-linejoin:round;stroke-miterlimit:10;stroke-dasharray:none;stroke-opacity:1" transform="matrix(0.16,0,0,-0.16,0,1122.52)"/><path id="path38" d="m 3493,3781.33 h -18 l -2,-16 2,2 5,1 h 6 l 5,-1 4,-4 1,-6 v -3 l -1,-6 -4,-3 -5,-2 h -6 l -5,2 -2,2 -2,3" style="fill:none;stroke:#000000;stroke-width:6;stroke-linecap:round;stroke-linejoin:round;stroke-miterlimit:10;stroke-dasharray:none;stroke-opacity:1" transform="matrix(0.16,0,0,-0.16,0,1122.52)"/><path id="path39" d="m 988,4644.33 1,-1 h 1 v 0 l 3,1 3,2 1,3 1,4 -1,2 v 2 l -1,2 -1,2 -1,2 -2,2 h -2 l -1,1 -2,-1 -2,-1 -1,-1 -1,-2 -3,-14 -1,-1 -1,-2 -1,-1 -1,-1 -1,-1 h -3 l -1,-1 h -2 l -1,1 v 0 l -3,1 -3,1 -2,2 -2,3 -2,3 -1,3 -1,4 v 4 l 1,7 2,5 4,2 5,1 h 4 v -6 l -1,1 h -1 v 0 l -3,-1 h -1 l -2,-1 -1,-1 -1,-2 v -2 l -1,-2 v -5 l 1,-3 v -2 l 2,-2 1,-2 2,-1 2,-1 h 4 l 1,1 2,2 v 2 l 4,12 1,4 2,2 2,1 3,1 h 1 v 0 l 1,-1 h 1 l 3,-1 2,-1 3,-2 2,-2 1,-3 2,-3 v -3 l 1,-3 -1,-7 -2,-5 -4,-3 h -8 v 0" style="fill:#000000;fill-opacity:1;fill-rule:evenodd;stroke:none" transform="matrix(0.16,0,0,-0.16,0,1122.52)"/><path id="path40" d="m 955,4599.33 v 6 l 22,-4 v 24 l -22,4 v 6 l 47,-10 v -6 l -20,5 v -24 l 20,-5 v -6" style="fill:#000000;fill-opacity:1;fill-rule:evenodd;stroke:none" transform="matrix(0.16,0,0,-0.16,0,1122.52)"/><path id="path41" d="m 955,4559.33 14,2 v 18 l -14,8 v 6 l 47,-27 v -7 l -47,-6 z m 40,5 -21,12 v -14" style="fill:#000000;fill-opacity:1;fill-rule:evenodd;stroke:none" transform="matrix(0.16,0,0,-0.16,0,1122.52)"/><path id="path42" d="m 997,4506.33 v 25 l -15,3 v -22 l -5,1 v 22 l -22,5 v 6 l 47,-10 v -31" style="fill:#000000;fill-opacity:1;fill-rule:evenodd;stroke:none" transform="matrix(0.16,0,0,-0.16,0,1122.52)"/><path id="path43" d="m 997,4466.33 v 15 l -42,9 v 6 l 42,-9 v 16 l 5,-2 v -36" style="fill:#000000;fill-opacity:1;fill-rule:evenodd;stroke:none" transform="matrix(0.16,0,0,-0.16,0,1122.52)"/><path id="path44" d="m 997,4409.33 v 26 l -15,3 v -25 l -5,1 v 26 l -16,3 v -28 l -6,2 v 33 l 47,-10 v -32" style="fill:#000000;fill-opacity:1;fill-rule:evenodd;stroke:none" transform="matrix(0.16,0,0,-0.16,0,1122.52)"/><path id="path45" d="m 955,4372.33 v 7 l 37,15 -37,8 v 6 l 47,-10 v -7 l -38,-15 38,-8 v -6" style="fill:#000000;fill-opacity:1;fill-rule:evenodd;stroke:none" transform="matrix(0.16,0,0,-0.16,0,1122.52)"/><path id="path46" d="m 974,4321.33 -5,2 -4,2 -4,4 -2,3 -2,3 -1,3 -1,3 v 20 l 47,-10 v -21 l -1,-2 -1,-3 -2,-2 -2,-2 -3,-1 -3,-1 h -11 v 0 z m 7,4 h 9 l 2,1 2,1 1,2 1,1 v 2 l 1,3 v 12 l -36,7 v -16 l 1,-2 1,-3 3,-2 2,-2 4,-1 3,-2 4,-1 v 0" style="fill:#000000;fill-opacity:1;fill-rule:evenodd;stroke:none" transform="matrix(0.16,0,0,-0.16,0,1122.52)"/><path id="path47" d="m 974,4257.33 -5,2 -4,3 -4,3 -2,3 -2,3 -1,3 -1,3 v 20 l 47,-10 v -21 l -1,-2 -1,-3 -2,-2 -2,-2 -3,-1 -3,-1 h -11 v 0 z m 7,4 h 9 l 2,1 2,1 1,2 1,2 v 1 l 1,3 v 12 l -36,7 v -16 l 1,-2 1,-3 3,-2 2,-2 4,-1 3,-2 4,-1 v 0" style="fill:#000000;fill-opacity:1;fill-rule:evenodd;stroke:none" transform="matrix(0.16,0,0,-0.16,0,1122.52)"/><path id="path48" d="m 997,4210.33 v 26 l -15,4 v -26 l -5,1 v 26 l -16,3 v -27 l -6,1 v 33 l 47,-10 v -32" style="fill:#000000;fill-opacity:1;fill-rule:evenodd;stroke:none" transform="matrix(0.16,0,0,-0.16,0,1122.52)"/><path id="path49" d="m 997,4168.33 v 15 l -42,9 v 6 l 42,-9 v 15 l 5,-1 v -37" style="fill:#000000;fill-opacity:1;fill-rule:evenodd;stroke:none" transform="matrix(0.16,0,0,-0.16,0,1122.52)"/><path id="path50" d="m 955,4140.33 14,2 v 18 l -14,8 v 6 l 47,-27 v -7 l -47,-7 z m 40,5 -21,12 v -14" style="fill:#000000;fill-opacity:1;fill-rule:evenodd;stroke:none" transform="matrix(0.16,0,0,-0.16,0,1122.52)"/><path id="path51" d="m 955,4120.33 v 6 l 47,-10 v -6" style="fill:#000000;fill-opacity:1;fill-rule:evenodd;stroke:none" transform="matrix(0.16,0,0,-0.16,0,1122.52)"/><path id="path52" d="m 955,4081.33 v 29 l 47,-10 v -6 l -41,9 v -23" style="fill:#000000;fill-opacity:1;fill-rule:evenodd;stroke:none" transform="matrix(0.16,0,0,-0.16,0,1122.52)"/><path id="path53" d="m 988,4040.33 h 1 1 3 l 3,2 1,3 1,5 -1,2 v 2 l -1,2 -1,1 -1,2 -2,2 -2,1 h -3 l -2,-1 -1,-2 -1,-2 -3,-14 -1,-1 -1,-2 -1,-1 -1,-1 h -1 l -1,-1 h -6 v 0 l -3,1 -3,1 -2,2 -2,3 -2,3 -1,4 -1,3 v 4 l 1,7 2,5 4,3 5,1 h 1 l 1,-1 h 2 v -5 h -1 -1 -3 l -1,-1 -2,-1 -1,-1 -1,-2 v -2 l -1,-2 v -5 l 1,-2 v -3 l 2,-2 1,-1 2,-2 2,-1 h 4 l 1,1 2,2 v 3 l 4,12 1,3 2,2 2,1 3,1 h 1 2 l 3,-1 2,-2 3,-2 2,-2 1,-3 2,-2 v -4 l 1,-3 -1,-7 -2,-4 -4,-3 -4,-1 h -4 v 0" style="fill:#000000;fill-opacity:1;fill-rule:evenodd;stroke:none" transform="matrix(0.16,0,0,-0.16,0,1122.52)"/><path id="path54" d="m 941,4683.33 v -646" style="fill:none;stroke:#000000;stroke-width:6;stroke-linecap:round;stroke-linejoin:round;stroke-miterlimit:10;stroke-dasharray:none;stroke-opacity:1" transform="matrix(0.16,0,0,-0.16,0,1122.52)"/><path id="path55" d="m 1226,4362.33 v 4 l -1,3 v 3 l -2,3 -1,2 -2,3 -3,2 -2,2 -3,1 -3,2 h -3 l -3,1 h -6 l -3,-1 -3,-1 -3,-2 -3,-1 -2,-3 -2,-2 -2,-3 -2,-2 -1,-3 v -3 l -1,-4 v -3 l 1,-3 1,-3 1,-3 1,-2 2,-3 3,-2 2,-2 3,-2 3,-1 3,-1 3,-1 h 3" style="fill:none;stroke:#000000;stroke-width:6;stroke-linecap:round;stroke-linejoin:round;stroke-miterlimit:10;stroke-dasharray:none;stroke-opacity:1" transform="matrix(0.16,0,0,-0.16,0,1122.52)"/><path id="path56" d="m 1201,4340.33 h 6 l 3,1 2,2 3,1 2,2 2,2 2,3 1,3 1,3 1,2 v 6 l -1,3 -1,3 -1,3 -2,2 -2,3 -2,2 -3,1 -2,2 -3,1 h -12 l -3,-1 -3,-2 -2,-1 -2,-2 -2,-3 -2,-2 -1,-3 -1,-3 -1,-3 v -6 l 1,-2 1,-3 1,-3 2,-3 2,-2 2,-2 2,-1 3,-2 3,-1 h 6" style="fill:none;stroke:#000000;stroke-width:6;stroke-linecap:round;stroke-linejoin:round;stroke-miterlimit:10;stroke-dasharray:none;stroke-opacity:1" transform="matrix(0.16,0,0,-0.16,0,1122.52)"/><path id="path57" d="m 1178,4297.33 h 46" style="fill:none;stroke:#000000;stroke-width:6;stroke-linecap:round;stroke-linejoin:round;stroke-miterlimit:10;stroke-dasharray:none;stroke-opacity:1" transform="matrix(0.16,0,0,-0.16,0,1122.52)"/><path id="path58" d="m 1178,4269.33 h 46" style="fill:none;stroke:#000000;stroke-width:6;stroke-linecap:round;stroke-linejoin:round;stroke-miterlimit:10;stroke-dasharray:none;stroke-opacity:1" transform="matrix(0.16,0,0,-0.16,0,1122.52)"/><path id="path59" d="m 1178,4297.33 v -28" style="fill:none;stroke:#000000;stroke-width:6;stroke-linecap:round;stroke-linejoin:round;stroke-miterlimit:10;stroke-dasharray:none;stroke-opacity:1" transform="matrix(0.16,0,0,-0.16,0,1122.52)"/><path id="path60" d="m 1224,4297.33 v -28" style="fill:none;stroke:#000000;stroke-width:6;stroke-linecap:round;stroke-linejoin:round;stroke-miterlimit:10;stroke-dasharray:none;stroke-opacity:1" transform="matrix(0.16,0,0,-0.16,0,1122.52)"/><path id="path61" d="m 1224,4283.33 5,2 5,2 5,2 5,3 5,3 4,4 5,3 4,4 3,5 4,4 3,5 3,5 2,5 2,5 2,5 1,6 1,6 v 5 l 1,6 -1,5 v 6 l -1,6 -2,5 -1,5 -2,6 -3,5 -3,5 -3,4 -3,5 -4,4 -4,4 -4,4 -5,3 -4,3 -5,3 -5,2 -6,2 -5,2 -5,2 h -6 l -6,1 h -11 l -5,-1 h -6 l -5,-2 -6,-2 -5,-2 -5,-2 -5,-3 -5,-3 -4,-3 -5,-4 -4,-4 -3,-4 -4,-5 -3,-4 -3,-5 -2,-5 -2,-6 -2,-5 -1,-5 -1,-6 -1,-6 v -11 l 1,-5 1,-6 1,-6 2,-5 2,-5 2,-5 3,-5 3,-5 3,-4 4,-5 4,-4 4,-3 5,-4 4,-3 5,-3 5,-2 6,-2 5,-2" style="fill:none;stroke:#000000;stroke-width:6;stroke-linecap:round;stroke-linejoin:round;stroke-miterlimit:10;stroke-dasharray:none;stroke-opacity:1" transform="matrix(0.16,0,0,-0.16,0,1122.52)"/><path id="path62" d="m 1201,4518.33 v -79" style="fill:none;stroke:#000000;stroke-width:6;stroke-linecap:round;stroke-linejoin:round;stroke-miterlimit:10;stroke-dasharray:none;stroke-opacity:1" transform="matrix(0.16,0,0,-0.16,0,1122.52)"/><path id="path63" d="m 1201,4426.33 v -13" style="fill:none;stroke:#000000;stroke-width:6;stroke-linecap:round;stroke-linejoin:round;stroke-miterlimit:10;stroke-dasharray:none;stroke-opacity:1" transform="matrix(0.16,0,0,-0.16,0,1122.52)"/><path id="path64" d="m 1201,4401.33 v -77" style="fill:none;stroke:#000000;stroke-width:6;stroke-linecap:round;stroke-linejoin:round;stroke-miterlimit:10;stroke-dasharray:none;stroke-opacity:1" transform="matrix(0.16,0,0,-0.16,0,1122.52)"/><path id="path65" d="m 1201,4311.33 v -12" style="fill:none;stroke:#000000;stroke-width:6;stroke-linecap:round;stroke-linejoin:round;stroke-miterlimit:10;stroke-dasharray:none;stroke-opacity:1" transform="matrix(0.16,0,0,-0.16,0,1122.52)"/><path id="path66" d="m 1201,4286.33 v -79" style="fill:none;stroke:#000000;stroke-width:6;stroke-linecap:round;stroke-linejoin:round;stroke-miterlimit:10;stroke-dasharray:none;stroke-opacity:1" transform="matrix(0.16,0,0,-0.16,0,1122.52)"/><path id="path67" d="m 1330,4362.33 h -53" style="fill:none;stroke:#000000;stroke-width:6;stroke-linecap:round;stroke-linejoin:round;stroke-miterlimit:10;stroke-dasharray:none;stroke-opacity:1" transform="matrix(0.16,0,0,-0.16,0,1122.52)"/><path id="path68" d="m 1264,4362.33 h -12" style="fill:none;stroke:#000000;stroke-width:6;stroke-linecap:round;stroke-linejoin:round;stroke-miterlimit:10;stroke-dasharray:none;stroke-opacity:1" transform="matrix(0.16,0,0,-0.16,0,1122.52)"/><path id="path69" d="m 1239,4362.33 h -76" style="fill:none;stroke:#000000;stroke-width:6;stroke-linecap:round;stroke-linejoin:round;stroke-miterlimit:10;stroke-dasharray:none;stroke-opacity:1" transform="matrix(0.16,0,0,-0.16,0,1122.52)"/><path id="path70" d="m 1150,4362.33 h -13" style="fill:none;stroke:#000000;stroke-width:6;stroke-linecap:round;stroke-linejoin:round;stroke-miterlimit:10;stroke-dasharray:none;stroke-opacity:1" transform="matrix(0.16,0,0,-0.16,0,1122.52)"/><path id="path71" d="m 1124,4362.33 h -52" style="fill:none;stroke:#000000;stroke-width:6;stroke-linecap:round;stroke-linejoin:round;stroke-miterlimit:10;stroke-dasharray:none;stroke-opacity:1" transform="matrix(0.16,0,0,-0.16,0,1122.52)"/><path id="path72" d="m 1215,4445.33 h 196" style="fill:none;stroke:#000000;stroke-width:6;stroke-linecap:round;stroke-linejoin:round;stroke-miterlimit:10;stroke-dasharray:none;stroke-opacity:1" transform="matrix(0.16,0,0,-0.16,0,1122.52)"/><path id="path73" d="m 1237,4297.33 h 174" style="fill:none;stroke:#000000;stroke-width:6;stroke-linecap:round;stroke-linejoin:round;stroke-miterlimit:10;stroke-dasharray:none;stroke-opacity:1" transform="matrix(0.16,0,0,-0.16,0,1122.52)"/><path id="path74" d="m 1389,4395.33 v -47" style="fill:none;stroke:#000000;stroke-width:6;stroke-linecap:round;stroke-linejoin:round;stroke-miterlimit:10;stroke-dasharray:none;stroke-opacity:1" transform="matrix(0.16,0,0,-0.16,0,1122.52)"/><path id="path75" d="m 1397,4395.33 h -17 l 9,50" style="fill:#000000;fill-opacity:1;fill-rule:evenodd;stroke:none" transform="matrix(0.16,0,0,-0.16,0,1122.52)"/><path id="path76" d="m 1380,4348.33 h 17 l -8,-51" style="fill:#000000;fill-opacity:1;fill-rule:evenodd;stroke:none" transform="matrix(0.16,0,0,-0.16,0,1122.52)"/><path id="path77" d="m 1450,4383.33 v 19 l -17,2 2,-2 2,-6 v -6 l -2,-5 -4,-4 -6,-2 h -4 l -6,2 -4,4 -2,5 v 6 l 2,6 2,2 4,2" style="fill:none;stroke:#000000;stroke-width:6;stroke-linecap:round;stroke-linejoin:round;stroke-miterlimit:10;stroke-dasharray:none;stroke-opacity:1" transform="matrix(0.16,0,0,-0.16,0,1122.52)"/><path id="path78" d="m 1450,4357.33 -2,6 -3,2 h -4 l -4,-2 -2,-4 -2,-8 -2,-6 -4,-4 -4,-2 h -6 l -4,2 -2,2 -2,6 v 8 l 2,6 2,2 4,2 h 6 l 4,-2 4,-4 2,-6 2,-8 2,-4 4,-2 h 4 l 3,2 2,6 v 8" style="fill:none;stroke:#000000;stroke-width:6;stroke-linecap:round;stroke-linejoin:round;stroke-miterlimit:10;stroke-dasharray:none;stroke-opacity:1" transform="matrix(0.16,0,0,-0.16,0,1122.52)"/><path id="path79" d="m 1211,4445.33 h 319" style="fill:none;stroke:#000000;stroke-width:6;stroke-linecap:round;stroke-linejoin:round;stroke-miterlimit:10;stroke-dasharray:none;stroke-opacity:1" transform="matrix(0.16,0,0,-0.16,0,1122.52)"/><path id="path80" d="m 1237,4269.33 h 293" style="fill:none;stroke:#000000;stroke-width:6;stroke-linecap:round;stroke-linejoin:round;stroke-miterlimit:10;stroke-dasharray:none;stroke-opacity:1" transform="matrix(0.16,0,0,-0.16,0,1122.52)"/><path id="path81" d="m 1507,4395.33 v -75" style="fill:none;stroke:#000000;stroke-width:6;stroke-linecap:round;stroke-linejoin:round;stroke-miterlimit:10;stroke-dasharray:none;stroke-opacity:1" transform="matrix(0.16,0,0,-0.16,0,1122.52)"/><path id="path82" d="m 1515,4395.33 h -16 l 8,50" style="fill:#000000;fill-opacity:1;fill-rule:evenodd;stroke:none" transform="matrix(0.16,0,0,-0.16,0,1122.52)"/><path id="path83" d="m 1499,4320.33 h 16 l -8,-51" style="fill:#000000;fill-opacity:1;fill-rule:evenodd;stroke:none" transform="matrix(0.16,0,0,-0.16,0,1122.52)"/><path id="path84" d="m 1563,4360.33 4,2 2,6 v 4 l -2,6 -6,4 -10,2 h -10 l -7,-2 -4,-4 -2,-6 v -2 l 2,-6 4,-4 5,-2 h 2 l 6,2 4,4 2,6 v 2 l -2,6 -4,4 -6,2" style="fill:none;stroke:#000000;stroke-width:6;stroke-linecap:round;stroke-linejoin:round;stroke-miterlimit:10;stroke-dasharray:none;stroke-opacity:1" transform="matrix(0.16,0,0,-0.16,0,1122.52)"/><path id="path85" d="m 1555,4319.33 -6,2 -4,4 -2,6 v 2 l 2,6 4,4 6,2 h 2 l 6,-2 4,-4 2,-6 v -2 l -2,-6 -4,-4 -8,-2 h -10 l -9,2 -6,4 -2,6 v 4 l 2,6 4,2" style="fill:none;stroke:#000000;stroke-width:6;stroke-linecap:round;stroke-linejoin:round;stroke-miterlimit:10;stroke-dasharray:none;stroke-opacity:1" transform="matrix(0.16,0,0,-0.16,0,1122.52)"/><path id="path86" d="m 1178,4256.33 v -114" style="fill:none;stroke:#000000;stroke-width:6;stroke-linecap:round;stroke-linejoin:round;stroke-miterlimit:10;stroke-dasharray:none;stroke-opacity:1" transform="matrix(0.16,0,0,-0.16,0,1122.52)"/><path id="path87" d="m 1224,4256.33 v -114" style="fill:none;stroke:#000000;stroke-width:6;stroke-linecap:round;stroke-linejoin:round;stroke-miterlimit:10;stroke-dasharray:none;stroke-opacity:1" transform="matrix(0.16,0,0,-0.16,0,1122.52)"/><path id="path88" d="m 1274,4165.33 h 151" style="fill:none;stroke:#000000;stroke-width:6;stroke-linecap:round;stroke-linejoin:round;stroke-miterlimit:10;stroke-dasharray:none;stroke-opacity:1" transform="matrix(0.16,0,0,-0.16,0,1122.52)"/><path id="path89" d="m 1178,4165.33 h 46" style="fill:none;stroke:#000000;stroke-width:6;stroke-linecap:round;stroke-linejoin:round;stroke-miterlimit:10;stroke-dasharray:none;stroke-opacity:1" transform="matrix(0.16,0,0,-0.16,0,1122.52)"/><path id="path90" d="m 1127,4165.33 h -50" style="fill:none;stroke:#000000;stroke-width:6;stroke-linecap:round;stroke-linejoin:round;stroke-miterlimit:10;stroke-dasharray:none;stroke-opacity:1" transform="matrix(0.16,0,0,-0.16,0,1122.52)"/><path id="path91" d="m 1127,4157.33 v 17 l 51,-9" style="fill:#000000;fill-opacity:1;fill-rule:evenodd;stroke:none" transform="matrix(0.16,0,0,-0.16,0,1122.52)"/><path id="path92" d="m 1274,4174.33 v -17 l -50,8" style="fill:#000000;fill-opacity:1;fill-rule:evenodd;stroke:none" transform="matrix(0.16,0,0,-0.16,0,1122.52)"/><path id="path93" d="m 1345,4219.33 4,2 6,6 v -41" style="fill:none;stroke:#000000;stroke-width:6;stroke-linecap:round;stroke-linejoin:round;stroke-miterlimit:10;stroke-dasharray:none;stroke-opacity:1" transform="matrix(0.16,0,0,-0.16,0,1122.52)"/><path id="path94" d="m 1387,4227.33 -6,-2 -2,-4 v -4 l 2,-4 4,-2 7,-2 6,-1 4,-4 2,-4 v -6 l -2,-4 -2,-2 -6,-2 h -7 l -6,2 -2,2 -2,4 v 6 l 2,4 4,4 5,1 8,2 4,2 2,4 v 4 l -2,4 -6,2 h -7" style="fill:none;stroke:#000000;stroke-width:6;stroke-linecap:round;stroke-linejoin:round;stroke-miterlimit:10;stroke-dasharray:none;stroke-opacity:1" transform="matrix(0.16,0,0,-0.16,0,1122.52)"/><path id="path95" d="m 1078,4626.33 h 38 l -38,-15 38,-14 h -38" style="fill:none;stroke:#000000;stroke-width:6;stroke-linecap:round;stroke-linejoin:round;stroke-miterlimit:10;stroke-dasharray:none;stroke-opacity:1" transform="matrix(0.16,0,0,-0.16,0,1122.52)"/><path id="path96" d="m 1107,4580.33 h 2 l 4,-2 2,-1 1,-4 v -7 l -1,-4 -2,-2 -4,-2 h -4 l -3,2 -6,4 -18,18 v -25" style="fill:none;stroke:#000000;stroke-width:6;stroke-linecap:round;stroke-linejoin:round;stroke-miterlimit:10;stroke-dasharray:none;stroke-opacity:1" transform="matrix(0.16,0,0,-0.16,0,1122.52)"/><path id="path97" d="m 1116,4535.33 -1,5 -6,4 -9,2 h -5 l -10,-2 -5,-4 -2,-5 v -4 l 2,-5 5,-4 10,-2 h 5 l 9,2 6,4 1,5 v 4" style="fill:none;stroke:#000000;stroke-width:6;stroke-linecap:round;stroke-linejoin:round;stroke-miterlimit:10;stroke-dasharray:none;stroke-opacity:1" transform="matrix(0.16,0,0,-0.16,0,1122.52)"/><path id="path98" d="m 1148,4417.33 33,-39 -44,26" style="fill:#000000;fill-opacity:1;fill-rule:evenodd;stroke:none" transform="matrix(0.16,0,0,-0.16,0,1122.52)"/><path id="path99" d="m 1142,4411.33 -76,65" style="fill:none;stroke:#000000;stroke-width:6;stroke-linecap:round;stroke-linejoin:round;stroke-miterlimit:10;stroke-dasharray:none;stroke-opacity:1" transform="matrix(0.16,0,0,-0.16,0,1122.52)"/><path id="path100" d="m 1066,4476.33 v 153" style="fill:none;stroke:#000000;stroke-width:6;stroke-linecap:round;stroke-linejoin:round;stroke-miterlimit:10;stroke-dasharray:none;stroke-opacity:1" transform="matrix(0.16,0,0,-0.16,0,1122.52)"/></g></svg>