<?xml version="1.0" encoding="UTF-8" standalone="no"?><!--Created with Inkscape (http://www.inkscape.org/)--><svg version="1.1" id="svg1" xmlns="http://www.w3.org/2000/svg" xmlns:svg="http://www.w3.org/2000/svg" viewBox="0 0 793.70667 1122.52"><defs id="defs1"/><g id="g1"><path id="path1" d="m 1310,5779.33 v -28 l -42,20" style="fill:none;stroke:#000000;stroke-width:6;stroke-linecap:round;stroke-linejoin:round;stroke-miterlimit:10;stroke-dasharray:none;stroke-opacity:1" transform="matrix(0.16,0,0,-0.16,0,1122.52)"/><path id="path2" d="m 1310,5715.33 v 20 l -18,2 2,-2 2,-6 v -6 l -2,-6 -4,-4 -6,-2 h -4 l -6,2 -4,4 -2,6 v 6 l 2,6 2,2 4,2" style="fill:none;stroke:#000000;stroke-width:6;stroke-linecap:round;stroke-linejoin:round;stroke-miterlimit:10;stroke-dasharray:none;stroke-opacity:1" transform="matrix(0.16,0,0,-0.16,0,1122.52)"/><path id="path3" d="m 1318,5663.33 -64,36" style="fill:none;stroke:#000000;stroke-width:6;stroke-linecap:round;stroke-linejoin:round;stroke-miterlimit:10;stroke-dasharray:none;stroke-opacity:1" transform="matrix(0.16,0,0,-0.16,0,1122.52)"/><path id="path4" d="m 1302,5655.33 2,-4 6,-6 h -42" style="fill:none;stroke:#000000;stroke-width:6;stroke-linecap:round;stroke-linejoin:round;stroke-miterlimit:10;stroke-dasharray:none;stroke-opacity:1" transform="matrix(0.16,0,0,-0.16,0,1122.52)"/><path id="path5" d="m 1310,5611.33 -2,6 -6,4 -10,2 h -6 l -10,-2 -6,-4 -2,-6 v -4 l 2,-6 6,-4 10,-2 h 6 l 10,2 6,4 2,6 v 4" style="fill:none;stroke:#000000;stroke-width:6;stroke-linecap:round;stroke-linejoin:round;stroke-miterlimit:10;stroke-dasharray:none;stroke-opacity:1" transform="matrix(0.16,0,0,-0.16,0,1122.52)"/><path id="path6" d="m 1310,5571.33 -2,6 -6,4 -10,2 h -6 l -10,-2 -6,-4 -2,-6 v -4 l 2,-6 6,-4 10,-2 h 6 l 10,2 6,4 2,6 v 4" style="fill:none;stroke:#000000;stroke-width:6;stroke-linecap:round;stroke-linejoin:round;stroke-miterlimit:10;stroke-dasharray:none;stroke-opacity:1" transform="matrix(0.16,0,0,-0.16,0,1122.52)"/></g></svg>